<svg width="24" height="23" viewBox="0 0 24 23" fill="none" xmlns="http://www.w3.org/2000/svg">
<path d="M5.74954 7.93433C5.75273 8.4129 6.16706 8.74514 6.65657 8.76581L12.708 8.55792L5.36199 15.4746C5.00364 15.812 5.03275 16.3144 5.36965 16.6232L6.19894 17.3834C6.56175 17.716 7.07686 17.7125 7.4352 17.3751L14.7812 10.4584L14.6644 16.1065C14.6932 16.561 15.0819 16.9173 15.5714 16.938L16.7046 16.9304C17.1938 16.9032 17.5778 16.5417 17.5749 16.111L17.5126 6.77903C17.5098 6.34832 17.121 5.99198 16.6315 5.97132L6.61278 6.06209C6.14918 6.06518 5.76524 6.42669 5.74252 6.88149L5.74954 7.93433Z" fill="#006A4E"/>
</svg>
