<svg width="93" height="92" viewBox="0 0 93 92" fill="none" xmlns="http://www.w3.org/2000/svg">
<rect width="93" height="92" rx="6" fill="#DFF3EE"/>
<rect x="13" y="14" width="67" height="64" rx="6" fill="#006A4E"/>
<path d="M64.9588 37.1402C64.9588 37.8442 64.9588 38.5458 64.9588 39.2498C64.8107 40.2355 64.6067 41.2066 64.2062 42.1266C62.8831 45.154 60.6424 47.1422 57.4718 48.0599C56.6051 48.3099 56.5978 48.2808 56.627 49.1839C56.627 49.2082 56.6294 49.23 56.627 49.2543C56.6173 49.4801 56.7314 49.5675 56.9499 49.5626C57.2072 49.5578 57.4645 49.5553 57.7219 49.5675C58.1418 49.5869 58.3822 49.8127 58.3895 50.2229C58.4016 51.0071 58.3919 51.7912 58.3919 52.5754C58.3919 52.8011 58.3191 53.0196 58.1151 53.107C57.8214 53.2333 57.819 53.4518 57.819 53.7091C57.8238 56.0518 57.8214 58.3921 57.819 60.7348C57.819 61.2907 57.7389 61.8297 57.4888 62.3346C57.0421 63.2377 56.2895 63.7427 55.3427 63.9976C54.9446 63.9976 54.5465 63.9976 54.1507 63.9976C54.0536 63.9587 53.959 63.915 53.8594 63.881C52.597 63.4611 51.7838 62.3686 51.7473 61.0285C51.7328 60.4774 51.7425 59.9264 51.7425 59.3777C51.7425 57.4671 51.7425 55.559 51.7401 53.6484C51.7401 53.4809 51.791 53.2818 51.5726 53.192C51.2108 53.0415 51.1331 52.7283 51.1307 52.386C51.1234 51.7305 51.1186 51.0726 51.1331 50.4172C51.1453 49.7811 51.3808 49.5675 52.0192 49.5578C53.0632 49.5432 52.9223 49.7277 52.9393 48.6158C52.9442 48.3633 52.8568 48.2395 52.5995 48.1813C50.2568 47.6545 48.3292 46.4528 46.8216 44.5786C46.6832 44.4062 46.5983 44.365 46.4793 44.5956C45.9306 45.6613 45.1829 46.5669 44.2847 47.3559C44.122 47.4991 44.0492 47.6617 44.054 47.8778C44.0613 48.3585 44.0735 48.8392 44.0492 49.3174C44.0322 49.65 44.173 49.7908 44.474 49.8879C45.9088 50.3516 47.3314 50.8469 48.7662 51.3105C49.1862 51.4465 49.4144 51.6868 49.4556 52.1311C49.5236 52.8885 49.6061 53.6435 49.6838 54.401C49.8586 56.0639 50.0383 57.7269 50.2106 59.3923C50.3442 60.6717 50.468 61.9535 50.6015 63.2329C50.6355 63.5727 50.5165 63.8276 50.2203 63.9976C43.2723 63.9976 36.3268 63.9976 29.3787 63.9976C29.0753 63.8106 28.9685 63.5339 29.0049 63.1892C29.0389 62.8638 29.068 62.5361 29.102 62.2108C29.3035 60.3027 29.505 58.3945 29.7065 56.4888C29.8594 55.0467 30.0197 53.6047 30.158 52.1602C30.2042 51.6844 30.4396 51.4392 30.8839 51.296C32.3187 50.8347 33.7437 50.3395 35.176 49.8734C35.4576 49.7811 35.5717 49.6379 35.562 49.3441C35.545 48.8537 35.5548 48.3609 35.5596 47.8681C35.562 47.669 35.5013 47.5088 35.346 47.3753C33.5689 45.8216 32.4862 43.8794 32.1075 41.5464C32.0783 41.3619 32.0055 41.2551 31.8258 41.192C31.5418 41.0925 31.3889 40.874 31.3913 40.5754C31.3961 39.8373 31.3597 39.1018 31.4496 38.3662C31.9812 33.9964 35.8485 30.7166 40.2644 30.9885C42.2454 31.1099 43.9569 31.8333 45.4354 33.1442C45.7437 33.4186 45.7389 33.4186 45.9549 33.0496C47.0012 31.2628 48.4578 29.9179 50.3102 28.9978C51.3953 28.4613 52.5436 28.1699 53.7308 28C54.4324 28 55.134 28 55.8356 28C55.9157 28.017 55.9934 28.0364 56.0735 28.0486C59.8631 28.6385 62.5651 30.6729 64.1625 34.1712C64.597 35.1131 64.801 36.1206 64.9588 37.1402ZM40.0508 47.7467C40.9029 47.754 41.9201 47.4675 42.8208 46.8558C44.1414 45.9575 45.0712 44.7291 45.7 43.2652C45.7728 43.0953 45.734 42.9521 45.6563 42.7991C45.3674 42.2359 45.1247 41.6508 44.9766 41.0342C44.9013 40.7186 44.7338 40.6069 44.4376 40.5462C42.7674 40.2088 41.6701 39.211 41.1554 37.5869C41.0583 37.2834 40.9442 37.2057 40.631 37.2859C38.2155 37.9098 35.9505 38.8808 33.8141 40.1724C33.3893 40.4297 33.28 40.7162 33.348 41.1726C33.6126 42.9229 34.3191 44.4596 35.5208 45.7633C36.6763 47.0184 38.0747 47.7443 40.0508 47.7467ZM63.6964 38.2059C63.7012 33.2438 59.7563 29.2891 54.7917 29.26C50.0116 29.2308 45.8335 33.0593 45.8457 38.2132C45.8554 43.1997 49.7615 47.1446 54.7771 47.1495C59.9068 47.1519 63.7279 42.9739 63.6964 38.2059ZM44.0565 56.9088C44.0565 58.7247 44.0589 60.5406 44.054 62.3565C44.054 62.5895 44.0783 62.774 44.3842 62.774C45.9161 62.7692 47.4479 62.7716 48.9798 62.774C49.191 62.774 49.2687 62.6988 49.2444 62.4754C49.106 61.196 48.9822 59.9142 48.8463 58.6348C48.6448 56.7145 48.4336 54.7967 48.2442 52.8764C48.2151 52.5851 48.1034 52.4394 47.8339 52.352C46.7124 51.9879 45.5932 51.6067 44.474 51.2329C44.0759 51.0993 44.0589 51.1115 44.0589 51.5339C44.054 53.3231 44.054 55.1147 44.0565 56.9088ZM35.562 56.9355C35.562 55.156 35.562 53.3765 35.562 51.597C35.562 51.0993 35.5523 51.0945 35.0692 51.2547C34.1273 51.5703 33.1951 51.915 32.241 52.1869C31.6608 52.352 31.2578 52.5778 31.3355 53.2648C31.35 53.3886 31.3087 53.5197 31.2966 53.6484C31.1437 55.1026 30.9932 56.5543 30.8402 58.0085C30.6897 59.4384 30.5343 60.8683 30.3911 62.2982C30.3474 62.7279 30.3959 62.7667 30.8208 62.7667C32.2337 62.7692 33.649 62.7692 35.0619 62.7667C35.5329 62.7667 35.5596 62.74 35.562 62.2715C35.562 60.4944 35.562 58.715 35.562 56.9355ZM39.8105 32.2411C38.6403 32.2679 37.5115 32.4961 36.4797 33.0714C34.1855 34.3508 32.8989 36.2954 32.6974 38.9343C32.6901 39.0459 32.6367 39.194 32.7484 39.262C32.8649 39.3348 32.962 39.2013 33.0542 39.143C35.5887 37.5626 38.3199 36.4677 41.2355 35.8268C41.9007 35.6812 42.1823 35.8851 42.2503 36.5576C42.3741 37.7811 42.9859 38.6575 44.1244 39.1406C44.5347 39.313 44.6003 39.2693 44.5809 38.8396C44.5202 37.5165 44.6634 36.2201 45.0955 34.965C45.1708 34.7489 45.0931 34.613 44.9523 34.4673C43.5467 33.0156 41.823 32.297 39.8105 32.2411ZM53.0364 57.353C53.0389 57.353 53.0389 57.353 53.0413 57.353C53.0413 58.5839 53.0267 59.8123 53.0462 61.0407C53.0632 62.0287 53.806 62.7303 54.7819 62.7279C55.7482 62.7255 56.508 61.9996 56.5129 61.0285C56.525 58.5693 56.5153 56.1101 56.5226 53.6508C56.5226 53.3401 56.4012 53.243 56.105 53.2454C55.2286 53.2575 54.3522 53.26 53.4759 53.243C53.1384 53.2357 53.0267 53.3619 53.0292 53.6945C53.0462 54.9181 53.0364 56.1368 53.0364 57.353ZM42.7601 49.8661C42.7601 49.3587 42.7552 49.0188 42.7625 48.6789C42.7674 48.4604 42.7213 48.3755 42.4833 48.475C40.7039 49.2252 38.9219 49.2276 37.1425 48.475C36.8875 48.3658 36.8414 48.4604 36.8438 48.6935C36.8511 49.349 36.856 50.0045 36.8414 50.6599C36.8366 50.9075 36.9337 51.0435 37.1497 51.1503C37.9484 51.5387 38.7423 51.9369 39.5313 52.3423C39.7279 52.4443 39.8979 52.4394 40.0921 52.3374C40.5898 52.0777 41.0753 51.7839 41.5997 51.5946C42.5125 51.262 43.0636 50.757 42.7601 49.8661ZM36.8463 58.7975C36.8463 59.9919 36.8536 61.1863 36.8414 62.3807C36.839 62.6672 36.9337 62.7862 37.225 62.7765C37.6207 62.7619 38.0188 62.7643 38.417 62.7765C38.6889 62.7837 38.752 62.6988 38.6209 62.4487C38.298 61.8248 38.0164 61.179 37.6668 60.5721C37.3901 60.0866 37.3682 59.635 37.5236 59.101C37.9533 57.6419 38.3369 56.1707 38.7302 54.702C38.7641 54.5758 38.8807 54.4228 38.752 54.3087C38.6306 54.2019 38.4874 54.3233 38.3587 54.3621C37.98 54.4811 37.6086 54.6292 37.2274 54.7311C36.9215 54.8137 36.8341 54.9812 36.8366 55.2871C36.8536 56.4548 36.8463 57.6249 36.8463 58.7975ZM42.7601 58.7902C42.7601 57.5958 42.7552 56.4014 42.765 55.207C42.7674 54.9545 42.6776 54.8185 42.4396 54.7457C42.0051 54.6122 41.5754 54.4592 41.1408 54.3184C41.0437 54.2869 40.9296 54.1995 40.8422 54.2674C40.7233 54.3573 40.8301 54.4884 40.8568 54.5903C41.2816 56.1732 41.7065 57.7536 42.1532 59.3316C42.26 59.7079 42.2236 60.0332 42.0439 60.3755C41.6846 61.0601 41.3545 61.7568 41 62.4439C40.8811 62.6769 40.8981 62.7862 41.1918 62.774C41.5293 62.7619 41.8691 62.7716 42.209 62.7716C42.7601 62.7716 42.7601 62.7716 42.7601 62.2351C42.7601 61.0868 42.7601 59.9385 42.7601 58.7902ZM39.8517 55.7945C39.8226 55.792 39.7959 55.7896 39.7668 55.7847C39.4269 57.0471 39.0846 58.3095 38.7471 59.5743C38.7132 59.703 38.7471 59.8293 38.8054 59.9482C39.0943 60.5236 39.3783 61.1014 39.6672 61.6767C39.7012 61.7447 39.7206 61.8564 39.8202 61.8369C39.8712 61.8272 39.9149 61.7423 39.9464 61.684C40.2426 61.0989 40.5315 60.5114 40.8252 59.9239C40.8859 59.8026 40.9005 59.6787 40.8665 59.5501C40.5291 58.2974 40.1892 57.0471 39.8517 55.7945ZM54.7577 51.9539C55.435 51.9539 56.1123 51.949 56.7872 51.9563C57.0373 51.9587 57.1611 51.8689 57.1416 51.6091C57.1344 51.5169 57.1416 51.4222 57.1416 51.3275C57.1392 50.8808 57.1198 50.8566 56.661 50.8566C55.4835 50.8541 54.3037 50.8566 53.1263 50.8566C52.4077 50.8566 52.4222 50.8566 52.4174 51.5606C52.415 51.8762 52.5412 51.966 52.8349 51.9587C53.4759 51.9442 54.1168 51.9539 54.7577 51.9539ZM54.8111 48.424C54.2309 48.4265 54.2309 48.4265 54.2333 49.0601C54.2357 49.5626 54.2357 49.5626 54.8548 49.5602C55.3282 49.5578 55.3282 49.5578 55.3257 48.912C55.3233 48.4216 55.3233 48.4216 54.8111 48.424ZM38.0164 53.1192C38.0237 53.09 38.031 53.0609 38.0383 53.0318C37.8659 52.9444 37.6984 52.8424 37.5187 52.7696C37.31 52.687 37.0793 52.4103 36.907 52.5462C36.7395 52.6773 36.8633 53.0075 36.8511 53.2478C36.8414 53.4275 36.9385 53.476 37.0963 53.425C37.3998 53.3255 37.7081 53.2211 38.0164 53.1192ZM41.539 53.0463C41.7235 53.1968 41.8983 53.2187 42.0585 53.2745C42.7917 53.527 42.8572 53.4712 42.7577 52.6846C42.7552 52.6725 42.7577 52.6603 42.7552 52.6506C42.748 52.5317 42.6945 52.4734 42.5756 52.5317C42.2381 52.6967 41.9031 52.8643 41.539 53.0463Z" fill="white"/>
<path d="M54.7621 46.0255C50.4238 46.023 46.9595 42.532 46.9668 38.1695C46.9741 33.8507 50.4724 30.3597 54.7864 30.367C59.1003 30.3718 62.6059 33.9041 62.5938 38.2326C62.584 42.549 59.0858 46.0303 54.7621 46.0255ZM54.7839 44.7558C58.3963 44.7461 61.3047 41.8183 61.3022 38.1914C61.2998 34.5523 58.3987 31.6803 54.7669 31.6561C51.4022 31.6342 48.2438 34.3459 48.2389 38.2083C48.2316 41.8426 51.1837 44.7655 54.7839 44.7558Z" fill="white"/>
<path d="M60.4894 38.5118C60.47 39.6261 60.0063 40.891 59.0692 41.9834C58.875 42.2092 58.739 42.2407 58.5108 42.0101C57.9331 41.4226 57.9233 41.4323 58.4016 40.7599C59.5523 39.1357 59.4674 36.9023 58.1661 35.3534C57.9355 35.0767 57.9355 34.9043 58.2074 34.7004C58.2535 34.6664 58.2899 34.6178 58.3312 34.5766C58.8167 34.0886 58.8167 34.0886 59.2367 34.6203C60.0524 35.6569 60.4894 36.8999 60.4894 38.5118Z" fill="white"/>
<path d="M57.4507 41.8547C57.7056 42.0295 57.7639 42.3281 57.8974 42.5733C57.963 42.6947 58.1329 42.8622 57.9775 42.9763C57.6619 43.2142 57.2978 43.389 56.9191 43.508C56.7491 43.5614 56.6981 43.355 56.6569 43.2361C56.5598 42.9618 56.1883 42.685 56.3923 42.4301C56.6253 42.1339 57.0647 42.0392 57.4507 41.8547Z" fill="white"/>
</svg>
