<svg width="94" height="92" viewBox="0 0 94 92" fill="none" xmlns="http://www.w3.org/2000/svg">
<rect width="94" height="92" rx="6" fill="#DFF3EE"/>
<rect x="13" y="14" width="68" height="64" rx="6" fill="#006A4E"/>
<path d="M58.9254 37.6475C59.0612 37.7262 59.2079 37.6855 59.3463 37.6855C61.2852 37.6882 63.2241 37.6882 65.1657 37.6882C65.8717 37.6882 66.0645 37.8756 66.0645 38.5599C66.0645 47.4151 66.0645 56.2677 66.0645 65.1229C66.0645 65.8099 65.8717 66 65.1684 66C53.9371 66 42.7058 66.0027 31.4772 65.9973C28.9273 65.9973 27.0048 64.072 27.002 61.5249C26.9993 53.5983 26.9993 45.6718 27.002 37.7479C27.0048 35.2252 28.9328 33.3054 31.4555 33.2945C32.2538 33.2918 33.0549 33.2891 33.8532 33.2945C34.3692 33.2972 34.6 33.5253 34.6027 34.0386C34.6081 35.1112 34.6136 36.1838 34.6 37.2564C34.5973 37.5633 34.6652 37.6964 35.01 37.6964C40.5415 37.6882 46.0703 37.6882 51.6017 37.6964C51.8733 37.6964 52.0362 37.5687 52.2073 37.3976C55.4197 34.1879 58.6349 30.9755 61.8528 27.7712C62.8032 26.8262 64.2234 26.7475 65.201 27.5703C66.298 28.4935 66.3849 30.1255 65.3666 31.1601C63.96 32.5858 62.5343 33.9924 61.1169 35.4099C60.4678 36.0562 59.8188 36.7025 59.1726 37.3542C59.0829 37.4357 58.9607 37.5036 58.9254 37.6475ZM52.1666 44.4471C52.134 44.4308 52.1041 44.4172 52.0715 44.4009C51.6886 44.792 51.303 45.183 50.9229 45.5767C50.7545 45.7505 50.5644 45.8754 50.3336 45.9488C49.2012 46.3208 48.0716 46.6982 46.9419 47.0757C46.6297 47.1789 46.3255 47.2278 46.0648 46.9616C45.8042 46.6955 45.8639 46.3914 45.9671 46.0818C46.2576 45.2129 46.5699 44.352 46.8279 43.4749C47.037 42.7689 47.3194 42.128 47.9195 41.6664C47.9575 41.6393 48.0037 41.5985 47.9684 41.5334C47.9575 41.5279 47.9467 41.5171 47.9358 41.5171C45.4864 41.5143 43.0343 41.5116 40.585 41.5035C40.3406 41.5035 40.2645 41.604 40.2673 41.8348C40.2754 42.3181 40.2754 42.8015 40.2673 43.2876C40.2591 43.7791 40.031 44.0099 39.5449 44.018C39.0724 44.0262 38.5999 44.0289 38.1302 44.018C37.8749 44.0126 37.7473 44.0778 37.75 44.3656C37.7608 45.5822 37.7608 46.7987 37.75 48.0153C37.7473 48.3031 37.8695 48.3737 38.1274 48.3656C38.5999 48.352 39.0697 48.3574 39.5422 48.3656C40.0337 48.3737 40.2673 48.6072 40.2673 49.0933C40.2673 49.8889 39.9713 50.5705 39.4363 51.1517C39.086 51.5318 39.086 51.5237 39.4472 51.9201C39.9685 52.4931 40.2618 53.1638 40.2645 53.9459C40.2673 54.4537 40.0337 54.6872 39.5232 54.6954C39.0507 54.7035 38.5809 54.7035 38.1084 54.6954C37.8695 54.6899 37.7473 54.7524 37.7473 55.024C37.7554 56.4632 37.7554 57.9024 37.7473 59.3389C37.7446 59.605 37.8613 59.6756 38.1057 59.6702C38.5782 59.6593 39.048 59.662 39.5205 59.6702C40.0337 59.6783 40.2591 59.9037 40.2673 60.4169C40.2727 60.8867 40.2781 61.3592 40.2673 61.829C40.2618 62.0734 40.3351 62.1874 40.6013 62.182C41.2041 62.1684 41.8069 62.1712 42.4098 62.182C42.646 62.1847 42.7384 62.0978 42.7356 61.8589C42.7248 61.3619 42.7275 60.865 42.7356 60.3681C42.7438 59.9064 42.9855 59.6729 43.4498 59.6702C44.2617 59.6675 44.9732 59.9499 45.538 60.5228C45.8177 60.8053 45.9698 60.846 46.2685 60.5337C46.8225 59.9526 47.5394 59.6702 48.3513 59.6702C48.8374 59.6702 49.0709 59.9037 49.079 60.3925C49.0872 60.8514 49.1008 61.3076 49.0763 61.7665C49.0573 62.1033 49.1931 62.1929 49.5081 62.1847C50.2277 62.1657 50.95 62.1576 51.6696 62.1874C52.0661 62.2037 52.1856 62.0897 52.1801 61.6851C52.1584 60.0232 52.1693 58.364 52.172 56.7021C52.172 56.159 52.3349 55.9744 52.8617 55.8875C52.9921 55.8658 53.1224 55.8495 53.25 55.8223C53.7497 55.711 54.1244 55.4286 54.3987 54.9995C54.5263 54.7986 54.5209 54.6899 54.2412 54.6954C53.8475 54.7035 53.4537 54.6981 53.0627 54.6954C52.3621 54.6927 52.172 54.508 52.172 53.8156C52.172 50.8339 52.172 47.8523 52.172 44.8707C52.1666 44.7295 52.1666 44.5883 52.1666 44.4471ZM50.5183 39.0894C50.5074 39.0595 50.4965 39.0297 50.4857 38.9971C50.3445 38.9971 50.2033 38.9971 50.0621 38.9971C45.109 38.9971 40.1532 38.9971 35.2001 38.9971C34.6054 38.9971 34.6054 38.9971 34.6054 39.5945C34.6054 45.5713 34.6054 51.5508 34.6054 57.5276C34.6054 58.2826 34.4289 58.4591 33.6876 58.4618C32.9788 58.4618 32.2728 58.4509 31.5641 58.4645C29.3319 58.5079 27.8466 60.4495 28.4711 62.4943C28.892 63.8683 30.1113 64.6857 31.746 64.6857C42.5727 64.6857 53.3994 64.6857 64.2234 64.6857C64.7475 64.6857 64.7475 64.6857 64.7475 64.1752C64.7475 60.3029 64.7475 56.4306 64.7475 52.5583C64.7475 48.189 64.7475 43.8198 64.7502 39.4506C64.7502 39.1736 64.7475 38.9835 64.3646 38.9862C62.1759 39.0025 59.9872 38.9944 57.7985 38.9944C57.6682 38.9944 57.5324 38.9835 57.4265 39.084C57.0762 39.4288 56.7286 39.7737 56.3647 40.1322C56.5331 40.2272 56.6634 40.1919 56.7911 40.1919C58.3117 40.1946 59.8324 40.1946 61.3531 40.1946C62.108 40.1946 62.2845 40.3684 62.2845 41.1125C62.2845 48.2542 62.2845 55.396 62.2845 62.5405C62.2845 63.3144 62.1134 63.4827 61.3368 63.4827C53.356 63.4827 45.3724 63.4827 37.3915 63.4827C36.5932 63.4827 36.433 63.3198 36.433 62.5133C36.433 55.4096 36.433 48.3058 36.433 41.2048C36.433 40.3413 36.5769 40.1946 37.4296 40.1946C41.2693 40.1946 45.109 40.1946 48.9514 40.1946C49.1578 40.1946 49.3669 40.2272 49.538 40.048C49.8611 39.7248 50.1924 39.4098 50.5183 39.0894ZM28.3136 58.3803C28.7128 58.0653 29.0522 57.8046 29.4378 57.6118C29.8289 57.4163 30.2389 57.2968 30.6652 57.2072C30.9911 57.1393 31.317 57.1719 31.6428 57.1529C32.1723 57.1176 32.8648 57.3864 33.1934 57.0443C33.5165 56.7076 33.2857 56.0205 33.2884 55.491C33.2938 48.8761 33.2938 42.2584 33.2938 35.6434C33.2938 34.6034 33.2938 34.6088 32.2375 34.6034C31.6347 34.6007 31.0291 34.5925 30.448 34.7853C29.1093 35.2334 28.3163 36.4146 28.3136 37.9788C28.3109 44.648 28.3136 51.3146 28.3136 57.9838C28.3136 58.0843 28.3136 58.1875 28.3136 58.3803ZM60.9756 54.6682C60.9756 53.153 60.9675 51.635 60.9838 50.1198C60.9865 49.783 60.8969 49.6581 60.5439 49.669C59.7075 49.6907 58.8684 49.6771 58.0293 49.6744C57.4564 49.6717 57.2799 49.5224 57.1902 48.9684C57.1739 48.8652 57.1549 48.762 57.1359 48.6588C57.049 48.1537 56.7748 47.7681 56.3539 47.4857C56.2697 47.4287 56.1801 47.3337 56.0742 47.3798C55.9547 47.4314 56.0063 47.5645 56.0036 47.6622C55.9981 48.0288 56.0009 48.3954 56.0009 48.7593C55.9981 49.4871 55.8189 49.6717 55.1047 49.6717C54.673 49.6717 54.2412 49.6799 53.8067 49.669C53.5705 49.6636 53.4809 49.7532 53.4809 49.9894C53.489 51.0104 53.489 52.0288 53.4809 53.0498C53.4782 53.3105 53.5813 53.3947 53.8312 53.3865C54.3037 53.3756 54.7734 53.3784 55.2459 53.3838C55.7782 53.3919 55.9981 53.6255 55.9981 54.1631C55.9981 55.4286 55.1265 56.5962 53.8339 57.047C53.6194 57.123 53.4754 57.1909 53.4754 57.4679C53.489 58.918 53.4863 60.3708 53.4782 61.8209C53.4782 62.0652 53.546 62.1766 53.8122 62.1739C55.2541 62.1657 56.6933 62.1657 58.1352 62.1739C58.4068 62.1766 58.4692 62.0517 58.4638 61.8154C58.4529 61.3321 58.4557 60.8487 58.4638 60.3653C58.472 59.9037 58.7055 59.6729 59.1726 59.662C59.5772 59.6539 59.9845 59.6593 60.3918 59.6593C60.9784 59.6593 60.9784 59.6593 60.9784 59.0918C60.9756 57.6227 60.9756 56.1455 60.9756 54.6682ZM53.4809 45.6419C53.4809 46.2692 53.4727 46.8965 53.4836 47.5237C53.4972 48.4742 53.3071 48.3465 54.3444 48.3656C54.6024 48.371 54.6947 48.2732 54.6865 48.0207C54.673 47.5509 54.6784 47.0784 54.6838 46.6086C54.692 46.0737 54.9228 45.8537 55.4605 45.8537C56.7286 45.851 57.9071 46.7172 58.3498 48.0125C58.4421 48.2841 58.5697 48.3791 58.8521 48.371C59.4414 48.352 60.0307 48.3574 60.6199 48.3683C60.8616 48.3737 60.9784 48.3031 60.9756 48.037C60.9675 46.8069 60.9675 45.5794 60.9756 44.3493C60.9784 44.0805 60.8534 44.018 60.6145 44.0208C60.1311 44.0316 59.6451 44.0289 59.1617 44.0208C58.6973 44.0126 58.4665 43.7764 58.4584 43.312C58.4502 42.8422 58.4448 42.3697 58.4611 41.8999C58.472 41.6175 58.3851 41.5008 58.0836 41.5062C57.1549 41.5225 56.2235 41.5171 55.2921 41.5089C55.0776 41.5062 54.9201 41.5768 54.7734 41.7289C54.4204 42.0955 54.0566 42.4566 53.69 42.8096C53.5379 42.9563 53.4727 43.1165 53.4754 43.3283C53.4863 44.0995 53.4809 44.8707 53.4809 45.6419ZM47.8462 45.3622C48.3784 45.1857 48.9107 44.9956 49.4511 44.8354C49.8014 44.7322 50.0811 44.5503 50.3363 44.2896C52.0335 42.5815 53.7416 40.8816 55.4469 39.1817C56.6879 37.9435 57.9261 36.6971 59.1753 35.4669C59.3871 35.2578 59.3871 35.1302 59.1726 34.9347C58.8141 34.6088 58.4665 34.2694 58.1461 33.9082C57.918 33.6503 57.7768 33.7019 57.5568 33.9245C54.5888 36.9007 51.6099 39.866 48.6391 42.8368C48.5387 42.9373 48.4165 43.0432 48.373 43.1681C48.1368 43.8198 47.925 44.4797 47.7023 45.1368C47.6561 45.2699 47.6561 45.3758 47.8462 45.3622ZM63.6966 28.3197C63.3001 28.3306 63.0096 28.4962 62.7597 28.7434C62.3225 29.1751 61.8799 29.6042 61.4563 30.0495C61.2173 30.302 60.7828 30.4976 60.7937 30.8261C60.8046 31.1221 61.2119 31.3285 61.4536 31.5675C61.7115 31.8227 61.9315 32.2681 62.2519 32.2735C62.5995 32.2789 62.814 31.8173 63.0829 31.5566C63.5527 31.1031 64.0197 30.6415 64.4596 30.1581C64.7746 29.8105 64.8452 29.3978 64.6334 28.9552C64.4352 28.5451 64.093 28.3713 63.6966 28.3197ZM61.2526 33.281C61.2065 33.2266 61.1522 33.1533 61.0897 33.0909C60.8779 32.8763 60.6634 32.6645 60.4516 32.4527C59.7129 31.7141 59.7157 31.7195 59.0069 32.4799C58.8603 32.6374 58.8331 32.7433 59.0015 32.8981C59.2323 33.1099 59.4468 33.3407 59.6695 33.5606C60.4353 34.3237 60.4353 34.3237 61.1386 33.5009C61.1875 33.4439 61.2581 33.395 61.2526 33.281ZM38.3528 41.5116C37.7527 41.5116 37.7527 41.5116 37.75 42.0629C37.75 42.7119 37.75 42.7119 38.3311 42.7119C38.9529 42.7119 38.9529 42.7119 38.9529 42.1416C38.9557 41.5116 38.9557 41.5116 38.3528 41.5116ZM60.9756 42.1118C60.9756 41.5116 60.9756 41.5116 60.4244 41.5116C59.7727 41.5116 59.7727 41.5116 59.7727 42.0927C59.7727 42.7119 59.7727 42.7119 60.3456 42.7119C60.9756 42.7119 60.9756 42.7119 60.9756 42.1118ZM38.3474 62.1766C38.9557 62.1766 38.9557 62.1766 38.9557 61.5927C38.9557 60.9763 38.9557 60.9763 38.38 60.9763C37.7527 60.9763 37.7527 60.9763 37.7527 61.5792C37.7527 62.1766 37.7527 62.1766 38.3474 62.1766ZM60.3755 62.1766C60.9756 62.1766 60.9756 62.1766 60.9756 61.6226C60.9756 60.9763 60.9756 60.9763 60.3918 60.9763C59.7727 60.9763 59.7727 60.9763 59.7727 61.5493C59.7727 62.1766 59.7727 62.1766 60.3755 62.1766ZM37.7391 50.2148C37.8097 50.3451 37.6441 50.5814 37.8396 50.652C37.9917 50.709 38.1383 50.5298 38.2714 50.4293C38.4479 50.2936 38.5864 50.1198 38.6923 49.9242C38.733 49.8509 38.8117 49.726 38.6814 49.6989C38.4153 49.6473 38.1274 49.6228 37.8722 49.707C37.6522 49.783 37.7907 50.0274 37.7391 50.2148ZM38.2415 53.3865C38.3148 53.3865 38.3691 53.3919 38.418 53.3865C38.5266 53.3702 38.6787 53.4463 38.7357 53.3132C38.7846 53.1964 38.6705 53.0987 38.6108 53.0036C38.4587 52.7701 38.2551 52.5909 38.0134 52.4551C37.9401 52.4144 37.8152 52.3275 37.7853 52.4497C37.7174 52.7131 37.7092 52.9982 37.7826 53.2562C37.8477 53.487 38.0976 53.3458 38.2415 53.3865ZM44.5469 62.1739C44.6827 62.1739 44.7886 62.1766 44.8917 62.1739C45.0438 62.1712 45.071 62.0897 45.0085 61.9702C44.8347 61.6389 44.5822 61.3837 44.2482 61.2126C44.1749 61.1746 44.0689 61.1583 44.0608 61.2615C44.0364 61.5303 43.9821 61.8181 44.0852 62.068C44.1667 62.2743 44.4111 62.1413 44.5469 62.1739ZM47.762 61.6661C47.762 61.5928 47.7675 61.5384 47.762 61.4868C47.7512 61.3891 47.8082 61.2615 47.7023 61.199C47.5964 61.1365 47.5095 61.237 47.4226 61.2886C47.1619 61.4461 46.9637 61.6688 46.8143 61.9349C46.7709 62.0109 46.7084 62.1359 46.8415 62.1549C47.1103 62.1929 47.3982 62.2363 47.6507 62.1358C47.8598 62.0544 47.7267 61.8127 47.762 61.6661Z" fill="white"/>
</svg>
