<svg width="93" height="92" viewBox="0 0 93 92" fill="none" xmlns="http://www.w3.org/2000/svg">
<rect width="93" height="92" rx="6" fill="#DFF3EE"/>
<rect x="13" y="14" width="68" height="64" rx="6" fill="#006A4E"/>
<path d="M27.0156 42.7201C27.0156 38.1809 27.0156 33.639 27.0156 29.0998C27.0156 27.7525 27.7627 27 29.1019 27C40.7445 27 52.3872 27 64.0299 27C65.3365 27 66.0944 27.766 66.0944 29.0781C66.0944 38.1863 66.0944 47.2918 66.0944 56.4001C66.0944 57.6985 65.3229 58.4619 64.0109 58.4619C59.5152 58.4619 55.0167 58.4619 50.521 58.4619C49.9343 58.4619 49.937 58.4619 50.0837 59.0459C50.3119 59.9586 50.5482 60.8713 50.7628 61.7868C50.8307 62.0802 50.9665 62.1943 51.2735 62.1834C51.8765 62.1617 52.4796 62.1644 53.0826 62.1834C54.6555 62.2296 56.0436 63.6829 56.0245 65.2503C56.0191 65.7582 55.7909 65.9973 55.2775 65.9973C49.4698 66 43.662 66 37.8542 65.9973C37.3164 65.9973 37.0936 65.7609 37.0909 65.2285C37.0855 63.6584 38.4763 62.2214 40.0546 62.1807C40.6712 62.1644 41.2878 62.1644 41.9017 62.1807C42.1625 62.1861 42.2766 62.0856 42.3364 61.8411C42.5781 60.836 42.8226 59.8337 43.0888 58.834C43.1758 58.5053 43.059 58.451 42.771 58.4564C42.1544 58.47 41.5377 58.4591 40.9238 58.4591C37.0176 58.4591 33.1086 58.4293 29.2024 58.4754C27.9039 58.4917 26.9912 57.6062 27.002 56.2969C27.0428 51.7767 27.0156 47.2484 27.0156 42.7201ZM46.5414 52.1271C52.4416 52.1271 58.3417 52.1271 64.2418 52.1271C64.7796 52.1271 64.7796 52.1271 64.7796 51.592C64.7796 44.1734 64.7796 36.7548 64.7796 29.3334C64.7796 28.4777 64.6085 28.312 63.7365 28.312C52.2786 28.312 40.8206 28.312 29.3599 28.312C28.4961 28.312 28.3304 28.4777 28.3304 29.347C28.3304 36.752 28.3304 44.1598 28.3304 51.5648C28.3304 52.1271 28.3304 52.1271 28.8818 52.1271C34.7684 52.1271 40.6549 52.1271 46.5414 52.1271ZM46.5767 53.4392C43.4447 53.4392 40.3099 53.4392 37.1779 53.4392C34.3989 53.4392 31.62 53.4392 28.8411 53.4392C28.3304 53.4392 28.3304 53.4392 28.3304 53.9634C28.3304 54.6969 28.3304 55.4276 28.3304 56.161C28.3304 56.9705 28.5124 57.1525 29.3246 57.1525C33.546 57.1525 37.7673 57.1525 41.9887 57.1525C49.2769 57.1525 56.5651 57.1525 63.8561 57.1525C64.5678 57.1525 64.7769 56.9461 64.7796 56.248C64.7824 55.4901 64.7796 54.7295 64.7796 53.9716C64.7796 53.4419 64.7796 53.4419 64.2364 53.4419C58.3498 53.4392 52.4633 53.4392 46.5767 53.4392ZM46.555 64.6907C49.084 64.6907 51.6158 64.6907 54.1448 64.688C54.2589 64.688 54.4083 64.7423 54.4762 64.6363C54.5604 64.5032 54.4218 64.3946 54.3512 64.2941C53.9302 63.6829 53.3081 63.4954 52.6073 63.4927C51.5071 63.4873 50.4042 63.49 49.3041 63.49C46.3812 63.49 43.4583 63.49 40.5354 63.49C39.8671 63.49 39.2586 63.6448 38.8213 64.199C38.7262 64.3212 38.5632 64.4598 38.6176 64.6037C38.6828 64.7776 38.8974 64.688 39.044 64.688C41.5486 64.6907 44.0532 64.6907 46.555 64.6907ZM46.5442 62.178C47.3835 62.178 48.2229 62.1725 49.0596 62.1807C49.3421 62.1834 49.4698 62.1399 49.3801 61.8058C49.1139 60.8089 48.8694 59.8038 48.6277 58.8014C48.5706 58.5597 48.4592 58.4564 48.1958 58.4591C47.1092 58.47 46.0199 58.4727 44.9333 58.4591C44.6562 58.4564 44.5367 58.5597 44.4742 58.8177C44.2379 59.8092 43.9988 60.8007 43.7326 61.7841C43.6376 62.1318 43.7571 62.1888 44.0668 62.1834C44.8926 62.1671 45.7184 62.178 46.5442 62.178Z" fill="white"/>
<path d="M47.81 40.8756C46.0796 40.8756 44.3493 40.8838 42.6189 40.8675C42.2766 40.8648 42.168 40.9598 42.168 41.3103C42.1707 42.6332 41.4209 43.3883 40.1062 43.3775C39.7232 43.3748 39.6471 43.5133 39.6525 43.8583C39.6688 45.1024 39.6607 46.3438 39.658 47.588C39.6553 48.2046 39.4488 48.411 38.8295 48.4138C37.9901 48.4165 37.1507 48.4246 36.3113 48.4083C35.9989 48.4029 35.874 48.4844 35.874 48.8239C35.8685 50.2012 35.1269 50.9265 33.7606 50.9265C32.9864 50.9265 32.2122 50.9319 31.4407 50.9237C30.3596 50.9129 29.5474 50.1115 29.5365 49.0413C29.5283 48.1774 29.5256 47.3136 29.5365 46.4498C29.5501 45.4175 30.3541 44.608 31.3864 44.5944C32.2502 44.5836 33.1168 44.5863 33.9833 44.5917C35.0617 44.6026 35.8658 45.4039 35.8821 46.4796C35.8848 46.5856 35.8903 46.6888 35.8821 46.7948C35.8685 47.0066 35.9555 47.1071 36.1782 47.1044C36.8084 47.0963 37.4359 47.099 38.0661 47.1044C38.2671 47.1071 38.3459 47.0148 38.3459 46.8192C38.3432 45.7734 38.3405 44.7248 38.3459 43.679C38.3459 43.4508 38.2373 43.3856 38.0308 43.3883C37.7429 43.3911 37.4576 43.4046 37.1751 43.3123C36.3656 43.0515 35.8414 42.3697 35.8332 41.5249C35.8251 40.661 35.8251 39.7972 35.8332 38.9334C35.8441 37.8767 36.6454 37.0726 37.7021 37.0536C38.3921 37.0427 38.3486 37.1378 38.3486 36.3881C38.3486 35.4971 38.3405 34.6088 38.3541 33.7178C38.3595 33.4298 38.2644 33.3212 37.9711 33.3321C37.4332 33.3511 36.8953 33.3619 36.3602 33.3293C35.969 33.3076 35.8767 33.4543 35.8821 33.8237C35.8957 34.837 35.3741 35.5432 34.4696 35.7877C34.3202 35.8285 34.1599 35.8475 34.005 35.8475C33.1521 35.8529 32.3018 35.8556 31.4489 35.8475C30.3514 35.8366 29.5501 35.0298 29.5419 33.927C29.5365 33.0903 29.5338 32.2509 29.5419 31.4142C29.5528 30.3331 30.3514 29.5263 31.4299 29.5155C32.2828 29.5073 33.1331 29.5073 33.986 29.5155C35.0672 29.5263 35.8685 30.3277 35.8875 31.4034C35.8875 31.4305 35.8875 31.455 35.8875 31.4822C35.893 32.0254 35.893 32.0254 36.458 32.0254C37.2566 32.0254 38.058 32.0227 38.8566 32.0254C39.4461 32.0282 39.6607 32.2428 39.6634 32.8322C39.6661 34.0872 39.6743 35.3449 39.658 36.5999C39.6525 36.9313 39.7313 37.0835 40.0926 37.0536C41.4101 36.9422 42.3038 38.0532 42.1788 39.1452C42.1408 39.4739 42.2793 39.569 42.6026 39.5663C45.2375 39.5554 47.8725 39.5554 50.5075 39.5663C50.8226 39.5663 50.9448 39.4875 50.9421 39.1507C50.9285 37.3442 50.9285 35.5405 50.9421 33.7341C50.9448 33.4244 50.8443 33.3185 50.5346 33.3293C49.9859 33.3484 49.4317 33.3538 48.883 33.3293C48.5407 33.313 48.4538 33.4516 48.4701 33.7667C48.5136 34.6169 48.174 35.2662 47.4026 35.66C47.1554 35.7877 46.8891 35.8502 46.6066 35.8502C45.7401 35.8475 44.8763 35.8556 44.0097 35.8475C42.9503 35.8366 42.1408 35.0325 42.1272 33.984C42.1164 33.1202 42.1164 32.2563 42.1272 31.3925C42.1381 30.3358 42.9422 29.529 43.9988 29.5182C44.8518 29.5073 45.7021 29.51 46.555 29.5182C47.6579 29.5263 48.4593 30.3277 48.4728 31.4278C48.481 32.0282 48.481 32.0282 49.065 32.0282C49.8637 32.0282 50.665 32.0254 51.4636 32.0309C52.0287 32.0336 52.246 32.2536 52.2487 32.8186C52.2514 34.913 52.2568 37.0047 52.2433 39.0991C52.2405 39.4468 52.322 39.5853 52.6996 39.5744C53.6558 39.55 54.6147 39.5554 55.5709 39.5717C55.8806 39.5772 55.9892 39.4739 55.9757 39.1643C55.9539 38.7079 55.9648 38.2488 55.9729 37.7897C55.9811 37.2953 56.2066 37.059 56.6901 37.0536C57.4887 37.0454 58.2901 37.0536 59.0887 37.0509C59.3114 37.0509 59.4989 37.1161 59.6537 37.2763C59.6809 37.3035 59.7162 37.3279 59.7379 37.3578C60.3111 38.1809 61.0989 38.4661 62.0768 38.3113C62.3457 38.2706 62.6255 38.2977 62.9026 38.3086C63.3236 38.3249 63.5708 38.5531 63.5736 38.9687C63.5844 40.2237 63.5844 41.4814 63.5736 42.7364C63.5708 43.1303 63.3209 43.3775 62.927 43.3775C60.8299 43.3856 58.7328 43.3856 56.633 43.3775C56.2174 43.3748 55.9865 43.1276 55.9757 42.7038C55.9648 42.2067 55.9621 41.7096 55.9757 41.2125C55.9811 40.9598 55.8887 40.862 55.6334 40.8675C54.5957 40.8865 54.7777 40.7588 54.7723 41.7096C54.7614 43.66 54.7696 45.6077 54.7696 47.5581C54.7696 48.2019 54.5658 48.4056 53.9247 48.4056C52.2596 48.4083 50.5944 48.4165 48.9292 48.3975C48.557 48.392 48.4647 48.5143 48.4674 48.8701C48.4755 50.1577 47.7014 50.9156 46.4165 50.9183C45.6178 50.921 44.8165 50.9265 44.0179 50.9156C42.9422 50.9047 42.1381 50.0952 42.1299 49.0168C42.1218 48.1666 42.1218 47.3163 42.1299 46.4661C42.1408 45.3904 42.9503 44.5944 44.0342 44.5836C44.8735 44.5754 45.7129 44.5781 46.5523 44.5836C47.6579 44.5917 48.4592 45.3904 48.4755 46.4878C48.4783 47.1017 48.4783 47.1017 49.0976 47.1017C50.4097 47.1017 51.719 47.0936 53.031 47.1071C53.357 47.1099 53.4602 47.0094 53.4575 46.6834C53.4439 44.8905 53.4412 43.0977 53.4575 41.3048C53.4602 40.949 53.338 40.8648 53.0011 40.8675C51.2735 40.8838 49.5431 40.8756 47.81 40.8756ZM59.7325 42.0763C60.4659 42.0763 61.1967 42.0709 61.9301 42.079C62.1556 42.0817 62.2669 42.0138 62.2642 41.7666C62.2534 41.1527 62.2534 40.5388 62.2642 39.9249C62.2669 39.6777 62.1501 39.6098 61.9274 39.6152C61.5471 39.6233 61.1668 39.5935 60.7892 39.6233C60.3193 39.6614 59.9281 39.5446 59.6564 39.1561C59.162 38.4444 58.4775 38.2597 57.649 38.3493C57.3556 38.3819 57.2714 38.4689 57.2741 38.7486C57.285 39.7266 57.2904 40.7072 57.2714 41.6851C57.266 42.0111 57.3936 42.0844 57.687 42.079C58.3716 42.0654 59.0534 42.0763 59.7325 42.0763ZM32.6713 30.8248C32.3181 30.8248 31.965 30.8166 31.6119 30.8275C31.1012 30.8411 30.8594 31.0693 30.8513 31.5718C30.8404 32.3161 30.8377 33.0604 30.8513 33.8047C30.8594 34.2882 31.0984 34.5246 31.5847 34.5327C32.329 34.5463 33.076 34.5463 33.8203 34.5327C34.3093 34.5246 34.5511 34.2882 34.5592 33.8101C34.5728 33.0523 34.5728 32.2971 34.5592 31.5392C34.5511 31.0774 34.3093 30.8465 33.8448 30.8302C33.4563 30.8139 33.0652 30.8275 32.6713 30.8248ZM43.4365 32.7154C43.4365 33.0686 43.4284 33.4217 43.4393 33.7721C43.4528 34.2828 43.681 34.5246 44.1836 34.5327C44.9279 34.5436 45.6749 34.5463 46.4192 34.5327C46.9027 34.5246 47.1418 34.2855 47.1499 33.802C47.1635 33.0577 47.1635 32.3134 47.1499 31.5691C47.1418 31.0801 46.9054 30.8384 46.4246 30.8302C45.6667 30.8166 44.9061 30.8166 44.1483 30.8302C43.6865 30.8384 43.4528 31.0774 43.4365 31.5419C43.4257 31.9331 43.4365 32.3243 43.4365 32.7154ZM38.9707 42.0763C39.3238 42.0763 39.677 42.0763 40.0301 42.0763C40.0573 42.0763 40.0817 42.0763 40.1089 42.0763C40.6006 42.0546 40.8478 41.8345 40.8559 41.3564C40.8722 40.5985 40.8695 39.8434 40.8559 39.0855C40.8478 38.621 40.6114 38.3792 40.1496 38.3683C39.3918 38.352 38.6312 38.3548 37.8733 38.3683C37.3897 38.3765 37.1534 38.6183 37.1453 39.1018C37.1317 39.8461 37.1317 40.5904 37.1453 41.3347C37.1534 41.8345 37.3979 42.06 37.9113 42.0736C38.2644 42.0817 38.6176 42.0763 38.9707 42.0763ZM32.6794 49.6117C33.0597 49.6117 33.4373 49.6199 33.8176 49.609C34.3093 49.5954 34.5538 49.3672 34.5646 48.8918C34.5782 48.134 34.5782 47.3788 34.5646 46.6209C34.5565 46.1564 34.3174 45.9146 33.8584 45.9065C33.1005 45.8902 32.3399 45.8929 31.582 45.9065C31.0985 45.9146 30.8621 46.1564 30.854 46.6426C30.8404 47.3869 30.8404 48.1312 30.854 48.8756C30.8621 49.3754 31.1066 49.6008 31.62 49.6144C31.9731 49.6199 32.3263 49.6117 32.6794 49.6117ZM45.319 45.901C44.9387 45.901 44.5612 45.8929 44.1808 45.9038C43.6919 45.9173 43.4501 46.1482 43.442 46.6291C43.4284 47.3869 43.4284 48.1421 43.442 48.9C43.4501 49.3618 43.6919 49.5981 44.1564 49.609C44.9143 49.6226 45.6749 49.6226 46.4328 49.609C46.9 49.6008 47.1418 49.3645 47.1526 48.9054C47.1689 48.1367 47.1689 47.3652 47.1526 46.5965C47.1418 46.1564 46.9027 45.9282 46.4599 45.9092C46.0769 45.8902 45.6966 45.9038 45.319 45.901Z" fill="white"/>
<path d="M29.5332 55.2674C29.5332 54.6399 29.5332 54.6399 30.2177 54.6399C30.848 54.6399 30.848 54.6399 30.8452 55.3244C30.8452 55.9519 30.8452 55.9519 30.12 55.9519C29.5332 55.9492 29.5332 55.9492 29.5332 55.2674Z" fill="white"/>
<path d="M33.3671 55.3215C33.3671 55.9517 33.3671 55.9517 32.6852 55.9517C32.0523 55.9517 32.0523 55.9517 32.055 55.2319C32.055 54.6397 32.055 54.6397 32.7776 54.6424C33.3671 54.6397 33.3671 54.6397 33.3671 55.3215Z" fill="white"/>
<path d="M46.5775 54.6399C47.2132 54.6399 47.2159 54.6399 47.2132 55.3163C47.2105 56.0253 47.2648 55.9465 46.4961 55.9492C45.8984 55.9519 45.8984 55.9492 45.8984 55.2348C45.8984 54.6399 45.8984 54.6399 46.5775 54.6399Z" fill="white"/>
</svg>
