<svg width="94" height="92" viewBox="0 0 94 92" fill="none" xmlns="http://www.w3.org/2000/svg">
<rect width="94" height="92" rx="6" fill="#DFF3EE"/>
<rect x="13" y="14" width="68" height="64" rx="6" fill="#006A4E"/>
<path d="M47.4362 66C41.3665 66 35.2996 66 29.2299 66C29.0596 66 28.8893 66.0054 28.7216 65.9892C28.2485 65.9432 28.0214 65.7432 28.0133 65.2673C27.9943 63.9506 27.9916 62.6313 28.0133 61.3146C28.0214 60.8171 28.2728 60.6089 28.8027 60.5954C29.4273 60.5792 30.0518 60.59 30.6791 60.59C32.4229 60.59 34.1695 60.59 35.9133 60.59C36.3783 60.59 36.3648 60.5927 36.2242 60.1655C35.9755 59.4058 35.9322 58.6055 35.8052 57.8215C35.5645 56.3291 35.3672 54.8313 35.1265 53.3389C34.8535 51.641 36.062 50.1675 37.7815 50.1621C40.7258 50.154 43.6673 50.154 46.6116 50.1675C46.9685 50.1702 47.1469 50.081 47.2389 49.7133C47.3849 49.1212 47.7228 48.6183 48.1608 48.1938C48.3095 48.0505 48.3419 47.9424 48.2176 47.7639C48.0175 47.4774 47.9769 47.1421 47.9769 46.7933C47.9824 43.8302 47.9688 40.8697 47.9824 37.9065C48.004 33.751 51.3349 30.1687 55.4606 29.7847C59.489 29.4116 63.6472 32.2856 64.2204 36.8412C64.2691 37.2198 64.2853 37.5929 64.2853 37.9714C64.2853 40.8426 64.2826 43.7112 64.288 46.5825C64.288 46.9691 64.2475 47.3422 64.0339 47.6693C63.923 47.8396 63.9663 47.9397 64.1042 48.0668C64.9774 48.8643 65.3235 49.8674 65.3154 51.0435C65.2938 54.0445 65.3073 57.0455 65.3073 60.0466C65.3073 60.5846 65.3073 60.5846 65.8453 60.5873C66.7429 60.5927 66.9159 60.7685 66.9187 61.6715C66.9214 62.7664 66.9214 63.8641 66.9187 64.9591C66.9159 65.7891 66.7051 65.9973 65.8696 65.9973C59.7297 66 53.5816 66 47.4362 66ZM57.9993 60.5873C59.8621 60.5873 61.725 60.5819 63.5851 60.5927C63.8987 60.5954 64.0231 60.5035 64.0231 60.1709C64.0122 57.0266 64.0231 53.8823 64.0122 50.738C64.0095 49.6835 63.3066 48.7616 62.2873 48.475C61.3735 48.2182 60.4434 48.0154 59.5269 47.7667C59.2701 47.6964 59.0997 47.7423 58.8997 47.9208C57.2964 49.3483 55.3768 49.3267 53.806 47.8721C53.6789 47.7558 53.5735 47.7018 53.3923 47.745C52.2676 48.0208 51.124 48.21 50.0155 48.5588C49.3855 48.7589 48.9367 49.1752 48.6285 49.7484C48.442 50.0999 48.4771 50.154 48.861 50.1567C49.4072 50.1621 49.956 50.1567 50.5021 50.1594C52.3379 50.1648 53.5302 51.5896 53.2355 53.3983C53.0219 54.7096 52.8462 56.029 52.6353 57.3402C52.4893 58.2541 52.4271 59.1814 52.1757 60.0736C52.0297 60.5927 52.0054 60.5873 52.565 60.5873C54.3765 60.5873 56.1879 60.5873 57.9993 60.5873ZM44.1675 60.5873C44.7542 60.5873 45.3382 60.59 45.9249 60.5873C47.1226 60.5819 48.3203 60.6062 49.518 60.5603C50.54 60.5197 50.8942 60.1385 51.0429 59.1409C51.3349 57.1564 51.6323 55.1719 51.9432 53.1902C52.1054 52.1493 51.543 51.4598 50.4859 51.4571C49.3964 51.4544 48.3068 51.4571 47.2172 51.4571C44.054 51.4571 40.8907 51.449 37.7274 51.4625C36.8704 51.4652 36.2918 52.2033 36.427 53.0523C36.5 53.5011 36.5622 53.9553 36.6298 54.4041C36.8839 56.0776 37.1326 57.7539 37.4003 59.4247C37.5003 60.0439 37.8897 60.4089 38.5142 60.5224C38.7981 60.5738 39.082 60.5873 39.3686 60.5873C40.9637 60.5873 42.5643 60.5873 44.1675 60.5873ZM47.4606 61.9283C41.6667 61.9283 35.87 61.9283 30.0761 61.9283C29.9464 61.9283 29.8166 61.9337 29.6868 61.9283C29.4381 61.9148 29.3354 62.0284 29.3381 62.2771C29.3462 62.9557 29.3462 63.6343 29.3381 64.3129C29.3354 64.5644 29.4435 64.6725 29.6895 64.659C29.8193 64.6536 29.9491 64.659 30.0789 64.659C41.6694 64.659 53.2599 64.659 64.8504 64.659C64.9666 64.659 65.0856 64.6509 65.2018 64.659C65.4884 64.6806 65.5993 64.5563 65.5912 64.2697C65.5803 63.683 65.5885 63.0963 65.5885 62.5069C65.5885 61.9256 65.5885 61.9256 65.0018 61.9256C59.1565 61.9256 53.3085 61.9283 47.4606 61.9283ZM63.0687 42.1377C63.0687 41.067 63.066 39.9964 63.0687 38.9285C63.0714 38.1201 63.0876 37.3117 62.9119 36.5141C61.8034 31.4691 56.3258 29.6198 52.4974 32.1991C50.3534 33.6428 49.4018 35.7679 49.3747 38.3147C49.3477 41.0941 49.3666 43.8734 49.3693 46.6528C49.3693 47.2259 49.5261 47.3584 50.0804 47.2367C50.905 47.0556 51.7296 46.8609 52.5515 46.6555C53.5329 46.4094 53.341 46.623 53.3842 45.6037C53.4004 45.2225 53.2842 45.0008 52.9489 44.7899C51.516 43.8869 50.5887 42.5946 50.2399 40.9291C49.9452 39.526 50.1236 38.093 50.1209 36.6763C50.1209 36.2816 50.5454 36.0139 50.878 36.1897C51.5863 36.5628 52.1676 36.2654 52.7327 35.9004C53.2842 35.5435 53.7222 35.0541 54.1331 34.5486C54.5792 33.9997 54.9415 33.3968 55.3119 32.7966C55.6607 32.2342 56.2285 32.2397 56.5475 32.7993C56.6448 32.9696 56.7124 33.1535 56.8097 33.3238C57.8615 35.1677 59.2295 36.4898 61.56 36.3167C62.0954 36.2762 62.3089 36.5249 62.3171 37.0819C62.3279 37.9416 62.3414 38.8041 62.3144 39.6665C62.2603 41.3834 61.7006 42.9407 60.3731 44.0383C59.6486 44.6358 59.4106 45.2469 59.5215 46.0985C59.5242 46.112 59.5242 46.1255 59.5215 46.1364C59.4945 46.3743 59.6053 46.4932 59.8324 46.5446C60.6705 46.7366 61.5033 46.942 62.3414 47.1367C62.8902 47.2638 63.0714 47.1205 63.0714 46.5635C63.0687 45.0873 63.0687 43.6112 63.0687 42.1377ZM51.3186 38.8852C51.3186 39.1474 51.3105 39.407 51.3186 39.6693C51.3916 41.8754 52.7056 43.6301 54.8523 44.2627C57.4343 45.0225 60.165 43.3976 60.7976 40.7696C61.0301 39.8044 60.9382 38.823 60.9517 37.847C60.9544 37.6604 60.8517 37.6091 60.6814 37.5929C60.3975 37.5658 60.1109 37.5361 59.8324 37.4712C58.2264 37.0819 57.0639 36.0788 56.1284 34.7676C55.8148 34.3269 55.8148 34.3242 55.5201 34.754C55.074 35.4029 54.5657 35.995 53.9709 36.5087C53.2788 37.1035 52.5218 37.5766 51.5674 37.5983C51.3511 37.6037 51.3132 37.7307 51.3159 37.9092C51.3214 38.2336 51.3186 38.5581 51.3186 38.8852ZM58.221 46.131C58.221 45.9877 58.2156 45.8444 58.221 45.7011C58.2319 45.4767 58.1345 45.4334 57.9345 45.4929C56.9449 45.7876 55.9446 45.82 54.9334 45.6173C54.8009 45.5902 54.7144 45.6037 54.6739 45.7606C54.4576 46.5716 54.6955 47.088 55.4552 47.4449C55.8689 47.6396 56.3015 47.6964 56.7476 47.6342C57.7317 47.4963 58.221 46.9907 58.221 46.131Z" fill="white"/>
<path d="M44.2995 39.2286C44.0696 39.2394 43.9182 39.0934 43.7533 38.9609C43.5965 38.8338 43.4397 38.6338 43.2126 38.723C42.9693 38.8203 42.9747 39.0745 42.9585 39.2934C42.9206 39.872 42.8016 40.0234 42.242 40.1397C41.4039 40.3127 40.5603 40.31 39.7195 40.1694C39.4032 40.1181 39.2058 39.9261 39.1409 39.6125C39.1085 39.4476 39.1031 39.2772 39.0733 39.1096C39.0138 38.7689 38.7921 38.6743 38.5137 38.8744C38.419 38.942 38.346 39.0366 38.2649 39.1204C38.027 39.3719 37.7512 39.4232 37.4538 39.2448C36.6482 38.7608 35.9912 38.1174 35.4423 37.3576C35.2639 37.1116 35.2774 36.844 35.4694 36.5979C35.4937 36.5682 35.5234 36.5411 35.5451 36.5087C35.6748 36.3221 35.929 36.1653 35.8263 35.9058C35.7181 35.6408 35.4288 35.7111 35.2044 35.6868C34.7286 35.6408 34.5231 35.4786 34.415 35.019C34.223 34.2106 34.1878 33.3941 34.3555 32.5749C34.4636 32.0585 34.6042 31.9287 35.1314 31.8584C35.2206 31.8476 35.3126 31.8449 35.4045 31.8341C35.7992 31.7773 35.8857 31.5637 35.6505 31.242C35.0665 30.4444 35.0638 30.4417 35.6884 29.636C36.0804 29.1278 36.5373 28.6817 37.0456 28.2923C37.4457 27.9868 37.6701 27.9949 38.0513 28.3167C38.1298 28.3843 38.2082 28.4546 38.2974 28.5113C38.5759 28.6871 38.8057 28.6033 38.8895 28.2869C38.9219 28.1626 38.9192 28.0274 38.9219 27.8976C38.9327 27.5407 39.1031 27.3028 39.4437 27.2055C40.3521 26.9486 41.266 26.9351 42.1852 27.146C42.4853 27.2136 42.6448 27.4272 42.6989 27.7219C42.7205 27.8354 42.707 27.9571 42.7259 28.0733C42.753 28.2383 42.753 28.4356 42.9341 28.5113C43.1315 28.5951 43.2829 28.4627 43.4181 28.3356C43.9588 27.8381 44.0886 27.8273 44.6888 28.2518C45.3106 28.6925 45.8513 29.217 46.3083 29.828C46.5976 30.2146 46.5867 30.4282 46.2785 30.8067C46.2055 30.8986 46.1217 30.9852 46.0649 31.0852C45.9162 31.3502 46.0109 31.5394 46.311 31.5935C46.4002 31.6097 46.4921 31.607 46.584 31.6124C47.1031 31.6421 47.287 31.8017 47.4168 32.3181C47.6195 33.1291 47.6087 33.9456 47.4708 34.7649C47.4032 35.1623 47.1896 35.4029 46.7679 35.411C46.7408 35.411 46.7138 35.411 46.6895 35.4191C46.4786 35.4867 46.1785 35.3948 46.0866 35.6814C46 35.9517 46.2109 36.1086 46.3867 36.2681C46.657 36.5141 46.7057 36.8061 46.5191 37.1116C46.0352 37.9011 45.3971 38.5472 44.659 39.0961C44.5536 39.1745 44.4346 39.2232 44.2995 39.2286ZM44.9375 30.2633C44.8321 29.9632 44.5671 29.801 44.3698 29.5793C44.2292 29.4225 44.1021 29.3981 43.8993 29.5117C42.9801 30.0254 42.0257 29.709 41.585 28.7682C41.3228 28.2085 41.0956 28.1004 40.4603 28.2166C40.2791 28.2491 40.1764 28.3248 40.1115 28.5194C39.7546 29.6009 38.8246 30.0524 37.7702 29.6658C37.5728 29.5928 37.4214 29.5955 37.2781 29.7523C37.1537 29.8848 37.0267 30.0173 36.8996 30.147C36.7185 30.3282 36.7103 30.4931 36.8428 30.7337C37.3457 31.653 37.0104 32.6344 36.0209 33.0048C35.6019 33.1616 35.4694 33.3698 35.5234 33.7726C35.537 33.8754 35.5343 33.9808 35.5261 34.0862C35.5072 34.3242 35.6208 34.4269 35.8452 34.4945C36.8834 34.8162 37.343 35.7436 36.9185 36.7358C36.7644 37.0954 36.8104 37.3198 37.0943 37.5415C37.1862 37.6145 37.2673 37.6983 37.3511 37.7821C37.5187 37.9497 37.6701 37.9849 37.8945 37.8335C38.6813 37.2955 40.125 37.7145 40.3359 38.6824C40.3846 38.9014 40.5306 38.969 40.7388 38.9582C40.8821 38.9501 41.0254 38.9474 41.1686 38.9609C41.485 38.9906 41.6526 38.8825 41.7553 38.5499C42.0554 37.6037 42.9882 37.1549 43.9047 37.5442C44.3238 37.7226 44.5833 37.655 44.8375 37.3252C44.8997 37.2441 44.9781 37.1711 45.0538 37.0981C45.1727 36.9791 45.189 36.8602 45.0916 36.7142C44.4455 35.7382 44.997 34.5513 46.0568 34.262C46.292 34.1971 46.365 34.0538 46.3542 33.8321C46.3461 33.6888 46.3434 33.5455 46.3569 33.4022C46.3867 33.0832 46.2812 32.9291 45.9352 32.8453C44.7942 32.5668 44.3535 31.6016 44.824 30.5201C44.8591 30.4363 44.897 30.3552 44.9375 30.2633Z" fill="white"/>
<path d="M30.7518 39.6748C31.0411 39.6639 31.2087 39.8099 31.3763 39.9586C31.5953 40.1479 31.7251 40.1533 31.7575 39.8072C31.817 39.1827 31.9441 39.061 32.5551 38.9313C33.2013 38.7961 33.8502 38.8123 34.4963 38.9042C34.8884 38.961 35.0857 39.2016 35.1371 39.6288C35.1533 39.7667 35.1155 39.9424 35.2777 40.0046C35.4183 40.0587 35.5183 39.9289 35.6075 39.8397C35.913 39.5477 36.2158 39.5558 36.5565 39.7883C37.1216 40.1749 37.6299 40.6102 38.0138 41.1861C38.2355 41.5186 38.2706 41.8296 37.9867 42.1459C37.8948 42.2486 37.7515 42.3595 37.838 42.5163C37.9164 42.6596 38.0868 42.6325 38.2274 42.6352C38.5951 42.6379 38.8032 42.838 38.8925 43.1787C39.0871 43.9249 39.0925 44.6765 38.9519 45.4281C38.887 45.7823 38.6545 45.9472 38.2949 45.985C37.7677 46.0391 37.7488 46.0986 38.0814 46.5177C38.2949 46.788 38.3139 47.0584 38.1327 47.3477C37.7515 47.9506 37.2865 48.4724 36.6971 48.8752C36.2834 49.1591 36.1158 49.1429 35.7211 48.8293C35.621 48.7509 35.5237 48.6211 35.3858 48.6752C35.2371 48.7346 35.2912 48.8996 35.2777 49.0239C35.2344 49.4917 35.0506 49.708 34.5883 49.7837C33.9691 49.8837 33.35 49.9297 32.7254 49.808C32.2145 49.7107 32.0279 49.5403 31.9603 49.0266C31.9441 48.8969 31.9576 48.7401 31.8197 48.686C31.6791 48.6292 31.5818 48.7617 31.4872 48.8455C31.179 49.1267 30.8762 49.1267 30.5355 48.8942C29.9813 48.5157 29.4811 48.0858 29.0972 47.5315C28.816 47.126 28.8241 46.9016 29.1242 46.5096C29.1999 46.4095 29.3378 46.3176 29.2621 46.1716C29.1945 46.0364 29.0404 46.0499 28.9133 46.0526C28.5105 46.0607 28.2807 45.8526 28.1914 45.4741C28.013 44.7279 28.0022 43.9762 28.1455 43.2246C28.2077 42.9056 28.4267 42.7515 28.7484 42.7028C29.327 42.6136 29.3324 42.5947 28.9917 42.1432C28.8133 41.9107 28.7808 41.6646 28.9214 41.4132C29.3053 40.7102 29.8812 40.1857 30.5382 39.745C30.6085 39.6991 30.7058 39.6883 30.7518 39.6748ZM30.841 41.2537C30.5409 41.2537 30.2651 41.716 30.3787 42.0026C30.7356 42.9002 30.4895 43.5788 29.6244 43.96C29.3432 44.0844 29.3756 44.2736 29.3567 44.4926C29.3351 44.7441 29.4757 44.8225 29.6784 44.8982C30.3138 45.1307 30.622 45.6065 30.6112 46.2797C30.6085 46.5068 30.5598 46.7204 30.4571 46.9205C30.3354 47.1584 30.5031 47.2828 30.6382 47.4207C30.7572 47.5423 30.8708 47.6424 31.0789 47.564C32.1631 47.1638 32.5578 47.3071 33.1094 48.3075C33.2581 48.5751 33.4771 48.4913 33.6852 48.5129C33.8934 48.5346 33.9718 48.4237 34.0394 48.2399C34.353 47.4072 35.1047 47.0584 35.9266 47.3801C36.178 47.4802 36.3483 47.4802 36.5484 47.2801C36.7512 47.0746 36.7377 46.8989 36.6295 46.6528C36.2943 45.8985 36.5862 45.1361 37.346 44.8009C37.5866 44.6954 37.6785 44.5683 37.6758 44.3061C37.6731 44.0492 37.6001 43.9141 37.3514 43.8086C36.5024 43.4463 36.205 42.7434 36.5511 41.8971C36.6619 41.6268 36.5592 41.4943 36.3997 41.324C36.2321 41.1455 36.078 41.132 35.8509 41.2293C35.0073 41.5889 34.3341 41.3429 33.9448 40.521C33.8204 40.2587 33.6474 40.2425 33.4149 40.2398C33.1905 40.2371 33.0742 40.3155 32.9877 40.5399C32.6849 41.3375 31.9062 41.6673 31.1114 41.3672C31.014 41.3294 30.9194 41.2861 30.841 41.2537Z" fill="white"/>
<path d="M56.8915 54.623C56.8915 53.9066 56.8969 53.1901 56.8887 52.4736C56.886 52.1627 56.9563 51.9113 57.2537 51.7572C57.5592 51.5977 57.7999 51.7166 58.0324 51.9167C58.5947 52.3979 59.2058 52.7386 59.9871 52.5845C60.4494 52.4926 60.8279 52.2384 61.174 51.941C61.4282 51.7247 61.6958 51.649 62.0013 51.7815C62.315 51.9194 62.3447 52.2033 62.3447 52.5034C62.3393 53.9093 62.3447 55.3179 62.342 56.7238C62.3393 57.3023 62.1068 57.5889 61.5309 57.5997C60.2304 57.6241 58.93 57.6214 57.6295 57.5997C57.0753 57.5889 56.8969 57.3672 56.8942 56.8103C56.8887 56.083 56.8915 55.353 56.8915 54.623ZM59.5545 56.2749C59.906 56.2749 60.2575 56.2668 60.609 56.2777C60.8712 56.2858 60.9875 56.183 60.9821 55.9127C60.9739 55.2476 60.9739 54.5825 60.9821 53.9201C60.9848 53.674 60.9226 53.5848 60.663 53.6822C59.9276 53.9606 59.1868 53.9579 58.4569 53.6632C58.2325 53.5713 58.1838 53.6686 58.1838 53.8714C58.1892 54.5608 58.1919 55.253 58.1838 55.9424C58.1811 56.202 58.3 56.2858 58.5407 56.2804C58.8786 56.2695 59.2166 56.2749 59.5545 56.2749Z" fill="white"/>
<path d="M44.1761 53.2063C45.7334 53.2036 47.0149 54.477 47.0176 56.0316C47.0203 57.5889 45.7415 58.8758 44.1896 58.8785C42.6702 58.8812 41.3508 57.5511 41.3535 56.0208C41.3535 54.504 42.6513 53.209 44.1761 53.2063ZM44.2275 54.5068C43.3948 54.4986 42.654 55.2097 42.6486 56.0181C42.6432 56.8211 43.3488 57.5456 44.1572 57.57C44.971 57.5943 45.7091 56.8724 45.7172 56.0397C45.728 55.2016 45.0602 54.5149 44.2275 54.5068Z" fill="white"/>
<path d="M40.8992 36.7385C39.2581 36.7358 37.8414 35.3164 37.836 33.6645C37.8279 31.9963 39.304 30.5093 40.9533 30.5283C42.6214 30.5445 44.0489 31.9828 44.0462 33.6428C44.0435 35.3029 42.5836 36.7412 40.8992 36.7385ZM42.6782 33.5996C42.6728 32.6155 41.9049 31.8584 40.9073 31.8611C39.9502 31.8611 39.1418 32.6641 39.131 33.6185C39.1202 34.5648 39.9394 35.357 40.9208 35.3515C41.9158 35.3461 42.6836 34.581 42.6782 33.5996Z" fill="white"/>
<path d="M36.0952 44.3953C36.0844 45.8688 34.9759 46.9773 33.5132 46.9773C32.0695 46.9773 30.8582 45.7606 30.8772 44.3304C30.8961 42.9407 32.1695 41.6943 33.5376 41.7214C34.9732 41.7484 36.106 42.9353 36.0952 44.3953ZM33.4727 45.6362C34.2838 45.6444 34.8488 45.1334 34.8596 44.3764C34.8704 43.6842 34.2378 43.0353 33.524 43.011C32.8535 42.9867 32.1857 43.6599 32.1776 44.3682C32.1695 45.0793 32.7319 45.6281 33.4727 45.6362Z" fill="white"/>
</svg>
