<svg width="93" height="92" viewBox="0 0 93 92" fill="none" xmlns="http://www.w3.org/2000/svg">
<rect width="93" height="92" rx="6" fill="#DFF3EE"/>
<rect x="13" y="14" width="67" height="64" rx="6" fill="#006A4E"/>
<path d="M53.0794 63.9866C49.8325 63.9866 46.5884 63.9866 43.3416 63.9866C43.146 63.9866 42.9476 64.0055 42.7602 63.9274C42.5455 63.8412 42.4097 63.685 42.4205 63.4534C42.4287 63.2407 42.5591 63.0979 42.7602 63.0171C42.9368 62.9498 43.1188 62.9579 43.3036 62.9579C44.9528 62.9579 46.602 62.9579 48.2512 62.9552C48.3626 62.9552 48.5148 63.0064 48.58 62.896C48.6534 62.7748 48.5121 62.6886 48.4523 62.5943C48.1263 62.0854 47.9877 61.5225 47.985 60.9301C47.9823 57.1302 47.9823 53.3277 47.985 49.5279C47.985 49.3987 47.9958 49.2667 48.0284 49.1428C48.0909 48.9193 48.2567 48.7927 48.4876 48.7873C48.724 48.782 48.8789 48.9112 48.9577 49.1293C49.031 49.3286 49.0147 49.5387 49.0147 49.746C49.0147 53.4705 49.0202 57.1922 49.0093 60.9166C49.0066 61.6168 49.2294 62.185 49.7999 62.6051C50.1151 62.8367 50.4656 62.9552 50.8596 62.9552C54.9432 62.9552 59.0269 62.9606 63.1106 62.9498C64.1947 62.9471 64.9935 62.1204 65.0043 61.0243C65.0179 59.8044 65.0071 58.5845 65.0071 57.3672C65.0071 53.0207 65.0071 48.6742 65.0071 44.3304C65.0071 42.8897 64.2327 42.1249 62.7737 42.1249C58.872 42.1249 54.9731 42.1249 51.0715 42.1249C50.3596 42.1249 49.77 42.3699 49.3408 42.9489C49.0908 43.2882 49.0039 43.6706 49.0066 44.0854C49.012 45.071 49.0093 46.0566 49.0066 47.0423C49.0039 47.5809 48.8272 47.8636 48.4958 47.869C48.1534 47.8744 47.966 47.6024 47.9768 47.0611C48.0013 45.8951 47.8736 44.7236 48.0447 43.5629C48.2512 42.1626 49.4657 41.15 50.8895 41.1446C52.6419 41.1365 54.3971 41.1338 56.1496 41.15C56.5137 41.1527 56.6468 41.0423 56.6169 40.6841C56.5925 40.3879 56.6033 40.0863 56.6169 39.79C56.6359 39.4372 56.8506 39.1976 57.1304 39.2191C57.4619 39.246 57.6113 39.4696 57.6304 39.7712C57.6521 40.0943 57.6548 40.4202 57.6412 40.7434C57.6276 41.0477 57.7472 41.15 58.0542 41.1473C59.6763 41.1365 61.3011 41.1419 62.9231 41.1419C64.7571 41.1446 65.9933 42.3753 65.996 44.2012C65.9988 49.7676 65.9988 55.3313 65.996 60.8978C65.996 62.729 64.7462 63.9758 62.8905 63.9812C59.6247 63.992 56.3534 63.9866 53.0794 63.9866Z" fill="white"/>
<path d="M31.2283 44.2011C31.2283 41.3465 31.2337 38.4946 31.2229 35.64C31.2229 35.2899 31.3261 35.0287 31.5788 34.781C33.7524 32.6427 35.9179 30.4964 38.0779 28.3447C38.317 28.1077 38.5751 28 38.9147 28C44.5172 28.0054 50.117 28 55.7195 28.0054C56.8334 28.0054 57.5018 28.6113 57.6295 29.7074C57.6485 29.8609 57.6513 30.0171 57.6513 30.1732C57.6513 32.6508 57.654 35.1284 57.6513 37.6059C57.6513 37.7998 57.6377 37.9964 57.5996 38.1849C57.5507 38.4138 57.3877 38.535 57.1486 38.5431C56.9095 38.5485 56.7546 38.43 56.6704 38.2119C56.6025 38.0368 56.6215 37.8537 56.6215 37.6733C56.6215 35.1311 56.6215 32.5889 56.6215 30.0467C56.6215 29.2199 56.434 29.0287 55.6162 29.0287C50.3017 29.0287 44.99 29.0287 39.6755 29.0287C39.1375 29.0287 39.1348 29.0314 39.1348 29.5727C39.1348 31.0135 39.1375 32.4515 39.1348 33.8923C39.1321 35.0745 38.5425 35.7801 37.3606 35.8339C35.8717 35.9013 34.3773 35.8636 32.8857 35.8689C32.2282 35.8716 32.2282 35.8689 32.2282 36.5341C32.2282 41.904 32.2282 47.2738 32.2254 52.6463C32.2254 52.8268 32.2309 53.0126 32.1874 53.1876C32.1222 53.4408 31.9402 53.5889 31.6657 53.5566C31.4131 53.5269 31.2691 53.368 31.2473 53.1176C31.2365 52.9749 31.2392 52.8321 31.2392 52.6894C31.2283 49.8564 31.2283 47.0287 31.2283 44.2011ZM33.0297 34.8268C33.1438 34.8321 33.2443 34.8456 33.3476 34.8456C34.6273 34.8456 35.907 34.8483 37.1894 34.8456C37.8551 34.8429 38.0915 34.6167 38.0942 33.965C38.0996 32.6831 38.0969 31.4013 38.0942 30.1194C38.0942 30.0251 38.1377 29.9093 38.048 29.8555C36.3798 31.5063 34.7197 33.1517 33.0297 34.8268Z" fill="white"/>
<path d="M34.0866 63.9865C31.932 63.9865 30.1659 63.9892 28.3972 63.9865C27.3756 63.9865 26.9816 63.6122 27.0006 62.605C27.0142 61.8698 27.0713 61.1239 27.0604 60.4022C27.0495 59.6347 27.0169 58.8537 27.0006 58.0808C26.9816 57.2675 27.4027 56.8716 28.2287 56.8663C29.2666 56.8609 29.2639 56.8609 29.2666 55.816C29.2666 55.4794 29.2585 55.14 29.272 54.8034C29.2938 54.2837 29.6035 53.9255 30.117 53.8312C30.3208 53.7935 30.5327 53.7801 30.742 53.7801C31.8668 53.7747 32.9944 53.7747 34.1192 53.7801C34.3692 53.7828 34.5621 53.7154 34.7495 53.5404C36.5183 51.9192 38.5805 51.3779 40.8818 52.1158C43.2103 52.8618 44.6014 54.5045 45.0633 56.8824C45.7127 60.2298 43.1152 63.6338 39.6999 63.9192C37.7029 64.0862 35.6978 63.9327 34.0866 63.9865ZM44.1287 57.9031C44.1314 55.0889 41.8572 52.8025 39.0479 52.7917C36.233 52.781 33.8855 55.0673 33.8774 57.8303C33.8692 60.6849 36.1434 62.9578 39.018 62.9578C41.8736 62.9578 44.126 60.7307 44.1287 57.9031ZM35.456 62.939C34.7821 62.3707 34.2197 61.7514 33.7633 61.0323C33.6818 60.9031 33.5541 60.8923 33.4209 60.8923C31.7228 60.8923 30.0219 60.895 28.3238 60.8896C28.063 60.8896 27.9842 61.0108 27.9869 61.2478C27.9951 61.649 28.0114 62.053 27.9815 62.4515C27.9516 62.842 28.082 62.9686 28.4841 62.9632C30.693 62.947 32.902 62.9551 35.1109 62.9551C35.225 62.9578 35.3391 62.947 35.456 62.939ZM30.6333 59.9093C31.3777 59.9093 32.1222 59.904 32.8694 59.912C33.1411 59.9147 33.2144 59.8312 33.1302 59.5646C32.9862 59.1068 32.8775 58.6382 32.8884 58.1535C32.8938 57.9111 32.777 57.8438 32.5515 57.8438C31.1386 57.8492 29.7285 57.8492 28.3157 57.8438C28.0521 57.8411 27.976 57.9596 27.9842 58.1993C27.9951 58.6382 28.0032 59.0799 27.9815 59.5216C27.9652 59.8393 28.1037 59.9201 28.3999 59.9147C29.1443 59.9013 29.8888 59.9093 30.6333 59.9093ZM31.6005 56.8663C31.9537 56.8663 32.307 56.8582 32.6574 56.8689C32.8612 56.8743 32.9753 56.7962 33.0188 56.5996C33.1329 56.0772 33.3177 55.5817 33.5649 55.1077C33.6763 54.895 33.6383 54.798 33.3829 54.8007C32.4428 54.8034 31.5027 54.8034 30.5626 54.8007C30.348 54.8007 30.2583 54.895 30.2583 55.1077C30.2638 55.5871 30.2638 56.0664 30.2583 56.5431C30.2556 56.772 30.3453 56.8743 30.5816 56.8663C30.9213 56.8582 31.2609 56.8636 31.6005 56.8663Z" fill="white"/>
<path d="M54.7848 35.0718C54.7956 37.6382 52.6737 39.7765 50.0979 39.7899C47.4325 39.8034 45.3024 37.7298 45.2698 35.088C45.2372 32.5215 47.419 30.3402 50.0219 30.3375C52.6329 30.3294 54.7739 32.4596 54.7848 35.0718ZM49.5355 33.3402C49.5355 32.8097 49.5246 32.2765 49.5409 31.746C49.5491 31.4363 49.4513 31.3743 49.147 31.447C47.15 31.9183 45.9137 33.903 46.3702 35.9255C46.7424 37.5709 48.2938 38.7989 50.0137 38.807C51.7118 38.8151 53.2768 37.6086 53.679 35.9955C53.7605 35.6643 53.6762 35.5646 53.3312 35.57C52.2987 35.5889 51.2635 35.5808 50.2311 35.5754C49.7203 35.5727 49.5437 35.395 49.5382 34.8968C49.5328 34.377 49.5382 33.8573 49.5355 33.3402ZM52.1466 34.5978C52.565 34.5978 52.9834 34.5844 53.3991 34.6032C53.679 34.614 53.7632 34.5386 53.7034 34.2504C53.4236 32.9066 52.2335 31.7244 50.8668 31.439C50.6277 31.3905 50.5245 31.4228 50.5272 31.6813C50.5354 32.5485 50.5354 33.4156 50.5272 34.2828C50.5245 34.5197 50.6223 34.6059 50.8533 34.6005C51.2826 34.5898 51.7146 34.5951 52.1466 34.5978Z" fill="white"/>
<path d="M56.9917 43.5547C58.9262 43.5547 60.8634 43.5547 62.798 43.5547C63.4229 43.5547 63.5642 43.692 63.5669 44.3033C63.5696 45.561 63.5696 46.8186 63.5669 48.0762C63.5642 48.5879 63.4174 48.7387 62.8958 48.7818C62.8577 48.7845 62.817 48.7872 62.7789 48.7872C58.9208 48.7872 55.0626 48.7899 51.2045 48.7845C50.5904 48.7845 50.422 48.5987 50.422 47.9766C50.4192 46.7594 50.4192 45.5394 50.422 44.3195C50.4247 43.7136 50.585 43.552 51.1854 43.552C53.12 43.5547 55.0545 43.5574 56.9917 43.5547ZM56.9835 47.7692C58.6953 47.7692 60.4097 47.7639 62.1214 47.7746C62.4502 47.7773 62.5915 47.6992 62.5806 47.3411C62.5561 46.5385 62.5616 45.7333 62.5779 44.9308C62.5833 44.6211 62.4719 44.5323 62.1676 44.5323C58.7279 44.5403 55.2908 44.5403 51.8511 44.5323C51.5387 44.5323 51.4408 44.64 51.4436 44.9389C51.4571 45.7279 51.4626 46.5197 51.4408 47.3114C51.43 47.675 51.5631 47.7773 51.919 47.7746C53.609 47.7612 55.2963 47.7692 56.9835 47.7692Z" fill="white"/>
<path d="M42.5219 45.8357C42.291 45.8357 42.0601 45.8465 41.8291 45.833C41.5112 45.8142 41.264 45.6876 41.2314 45.3375C41.2042 45.0467 41.4487 44.8339 41.8454 44.8258C42.435 44.8097 43.0219 44.8097 43.6115 44.8258C44.0543 44.8393 44.2309 45.0224 44.2391 45.4533C44.25 46.0377 44.2473 46.6194 44.2391 47.2038C44.2337 47.5915 44.0326 47.8231 43.7229 47.8016C43.3561 47.7747 43.2474 47.5323 43.2528 47.2064C43.2555 47.0529 43.2528 46.9021 43.2528 46.7406C43.0681 46.7486 43.0083 46.8806 42.9213 46.9668C41.8454 48.0278 40.7749 49.0942 39.699 50.1553C39.2833 50.5673 39.0605 50.5673 38.6421 50.158C38.2698 49.7944 37.8922 49.4336 37.5362 49.0538C37.346 48.8519 37.2238 48.8653 37.0336 49.0592C36.137 49.9668 35.2241 50.8608 34.3166 51.7576C34.197 51.8761 34.0802 52.0027 33.9009 52.0377C33.6998 52.0754 33.5395 51.9973 33.4227 51.8411C33.2923 51.6661 33.2841 51.4722 33.4118 51.2971C33.5096 51.1625 33.6373 51.044 33.7569 50.9255C34.7649 49.9237 35.7729 48.9246 36.7809 47.9282C37.1939 47.5215 37.3922 47.5188 37.7998 47.9174C38.191 48.2998 38.5796 48.6849 38.9654 49.0727C39.0904 49.1966 39.1963 49.2693 39.3566 49.1104C40.4163 48.0547 41.4813 47.0018 42.5437 45.9488C42.5382 45.9057 42.5301 45.8707 42.5219 45.8357Z" fill="white"/>
<path d="M52.3459 61.5708C51.941 61.5708 51.5362 61.5789 51.1286 61.5681C50.6314 61.5574 50.4304 61.3662 50.4222 60.8841C50.4113 60.2486 50.4113 59.613 50.4222 58.9802C50.4304 58.5224 50.6015 58.3231 51.058 58.3123C51.9193 58.2908 52.7833 58.2908 53.6473 58.3123C54.0983 58.3231 54.2695 58.525 54.2777 58.9856C54.2885 59.6076 54.2885 60.2297 54.2777 60.8518C54.2695 61.3662 54.0739 61.5574 53.5631 61.5708C53.1555 61.5789 52.7507 61.5708 52.3459 61.5708ZM52.3567 59.3168V59.3195C52.1475 59.3195 51.941 59.3168 51.7318 59.3195C51.6259 59.3195 51.5036 59.3329 51.4818 59.4568C51.4275 59.7638 51.4357 60.0735 51.4764 60.3805C51.4927 60.5017 51.6068 60.5313 51.7182 60.534C52.1339 60.5367 52.5524 60.5367 52.9681 60.5367C53.1392 60.5367 53.218 60.4586 53.2452 60.2836C53.3729 59.4218 53.2887 59.3168 52.4382 59.3168C52.4084 59.3168 52.3839 59.3168 52.3567 59.3168Z" fill="white"/>
<path d="M52.3565 54.238C52.7749 54.238 53.1933 54.2272 53.6118 54.2407C54.0628 54.2541 54.2611 54.4453 54.272 54.8897C54.2883 55.5495 54.2883 56.2119 54.272 56.8717C54.2611 57.2864 54.0872 57.4803 53.6715 57.4911C52.7967 57.5127 51.9191 57.5127 51.0442 57.4938C50.6067 57.483 50.4301 57.2864 50.422 56.8556C50.4084 56.1958 50.4084 55.5333 50.4247 54.8735C50.4356 54.4507 50.6339 54.2595 51.0632 54.2434C51.4952 54.2272 51.9245 54.2407 52.3565 54.238ZM52.3157 56.4866C53.3319 56.4866 53.3319 56.4812 53.2477 55.5629C53.2287 55.3502 53.1417 55.264 52.9325 55.264C52.5684 55.2667 52.2043 55.2748 51.8403 55.2613C51.5523 55.2505 51.449 55.369 51.4517 55.6491C51.4626 56.6293 51.3865 56.4732 52.2777 56.4866C52.2886 56.4893 52.3022 56.4866 52.3157 56.4866Z" fill="white"/>
<path d="M52.3582 53.4137C51.9126 53.4137 51.4697 53.4191 51.0268 53.411C50.6274 53.4057 50.4372 53.2441 50.4264 52.8536C50.4074 52.1669 50.4074 51.4802 50.4264 50.7961C50.4372 50.3922 50.641 50.1956 51.0404 50.1875C51.9017 50.1768 52.7657 50.1768 53.627 50.1875C54.0536 50.1929 54.2601 50.3895 54.2709 50.8096C54.29 51.4829 54.2872 52.1561 54.2709 52.8294C54.2601 53.2441 54.0726 53.4057 53.6542 53.411C53.2222 53.4191 52.7902 53.4137 52.3582 53.4137ZM52.3337 52.4362C53.3336 52.4092 53.2412 52.6489 53.2412 51.5313C53.2412 51.5179 53.2385 51.5044 53.2385 51.4936C53.2412 51.297 53.1352 51.2136 52.9478 51.2136C52.5565 51.2136 52.1653 51.2162 51.7767 51.2109C51.5458 51.2082 51.4534 51.3186 51.4534 51.5421C51.4534 52.6301 51.38 52.4119 52.2984 52.4362C52.3093 52.4362 52.3228 52.4362 52.3337 52.4362Z" fill="white"/>
<path d="M61.6697 54.2379C62.0881 54.2379 62.5066 54.2271 62.925 54.2406C63.3814 54.254 63.558 54.4372 63.5635 54.8923C63.5716 55.5521 63.5716 56.2145 63.5635 56.8743C63.558 57.289 63.395 57.4856 62.9766 57.4937C62.1017 57.5153 61.2268 57.5153 60.352 57.4937C59.9281 57.4856 59.7597 57.2917 59.7542 56.8851C59.7461 56.2118 59.7461 55.5386 59.7542 54.8653C59.7597 54.4345 59.939 54.254 60.3791 54.2406C60.8084 54.2271 61.2377 54.2379 61.6697 54.2379ZM61.6235 56.4865C62.7049 56.4623 62.5582 56.6777 62.5745 55.5871C62.5772 55.3582 62.4875 55.2558 62.2539 55.2612C61.955 55.2693 61.6561 55.2612 61.3545 55.2612C60.7378 55.2612 60.7378 55.2612 60.7378 55.8725C60.7378 56.4838 60.7378 56.4838 61.3518 56.4865C61.4415 56.4865 61.5339 56.4865 61.6235 56.4865Z" fill="white"/>
<path d="M61.6257 61.5629C61.2208 61.5629 60.816 61.5736 60.4112 61.5602C59.9194 61.544 59.7537 61.369 59.7482 60.8923C59.7428 60.246 59.7428 59.597 59.7482 58.9507C59.7537 58.5144 59.9194 58.3151 60.3541 58.307C61.229 58.2882 62.1039 58.2882 62.9787 58.3097C63.3972 58.3205 63.5548 58.5117 63.5602 58.9318C63.5683 59.5916 63.5683 60.2541 63.5602 60.9139C63.5548 61.369 63.3863 61.544 62.9163 61.5629C62.4897 61.5736 62.0577 61.5629 61.6257 61.5629ZM61.6827 59.3196C60.6068 59.3465 60.7508 59.1203 60.7372 60.2218C60.7345 60.456 60.835 60.5476 61.0633 60.5449C61.4545 60.5395 61.8457 60.5368 62.2343 60.5449C62.487 60.5503 62.5793 60.4453 62.5766 60.1975C62.5603 59.1526 62.6853 59.3384 61.7208 59.3196C61.7072 59.3196 61.6963 59.3196 61.6827 59.3196Z" fill="white"/>
<path d="M56.9822 61.5629C56.5638 61.5629 56.1454 61.5736 55.7269 61.5602C55.2786 61.5467 55.1102 61.3744 55.1048 60.9408C55.0966 60.2675 55.0993 59.5943 55.1048 58.921C55.1102 58.4955 55.2569 58.3178 55.6889 58.307C56.5638 58.2855 57.4387 58.2855 58.3135 58.3043C58.7374 58.3124 58.9113 58.5225 58.9167 58.9587C58.9249 59.6051 58.9249 60.2541 58.9167 60.9004C58.9113 61.3447 58.7211 61.5413 58.2728 61.5575C57.8462 61.5763 57.4142 61.5629 56.9822 61.5629ZM57.042 59.3196C55.9769 59.3465 56.1046 59.1149 56.0965 60.2218C56.0937 60.4534 56.1943 60.5476 56.4225 60.5449C56.8138 60.5395 57.2023 60.5368 57.5935 60.5476C57.8462 60.553 57.9386 60.4453 57.9332 60.2002C57.9169 59.1553 58.0418 59.3411 57.08 59.3223C57.0692 59.3196 57.0556 59.3196 57.042 59.3196Z" fill="white"/>
<path d="M56.9964 54.2379C57.4149 54.2379 57.8333 54.2271 58.249 54.2406C58.7217 54.2567 58.9147 54.4506 58.9201 54.9138C58.9282 55.5601 58.9282 56.2091 58.9201 56.8555C58.9147 57.2729 58.7544 57.4749 58.3386 57.4856C57.4393 57.5099 56.5373 57.5045 55.6379 57.4883C55.282 57.4829 55.1 57.2702 55.1054 56.9066C55.1108 56.2199 55.1027 55.5332 55.1081 54.8492C55.1136 54.4372 55.282 54.2594 55.7031 54.2433C56.1352 54.2271 56.5672 54.2406 56.9964 54.2379ZM57.0182 56.4865C58.0534 56.4623 57.9229 56.6777 57.9311 55.5817C57.9311 55.5682 57.9311 55.5547 57.9311 55.544C57.9392 55.3447 57.836 55.2639 57.6431 55.2639C57.2247 55.2666 56.8063 55.2666 56.3878 55.2639C56.1949 55.2639 56.1161 55.3501 56.0971 55.5467C56.0047 56.4623 56.0238 56.4865 56.9421 56.4865C56.9666 56.4865 56.991 56.4865 57.0182 56.4865Z" fill="white"/>
<path d="M56.994 53.4139C56.562 53.4139 56.13 53.4192 55.698 53.4112C55.2796 53.4031 55.1166 53.255 55.1111 52.8537C55.1003 52.1535 55.1084 51.4533 55.1084 50.7532C55.1084 50.3815 55.3203 50.1957 55.6681 50.1903C56.5566 50.1769 57.4478 50.1742 58.3362 50.1903C58.7247 50.1957 58.9122 50.3923 58.9177 50.7801C58.9312 51.4668 58.9312 52.1562 58.9177 52.8429C58.9095 53.2388 58.7247 53.4058 58.3281 53.4139C57.8825 53.4219 57.4369 53.4139 56.994 53.4139ZM57.0022 52.4363C57.0022 52.4336 57.0022 52.4336 57.0022 52.4363C57.2222 52.4336 57.445 52.4363 57.6651 52.4336C57.7711 52.4336 57.9042 52.4201 57.9096 52.2963C57.9259 51.9893 57.9287 51.6796 57.9124 51.3726C57.9042 51.2298 57.7575 51.2164 57.6379 51.2164C57.2222 51.2137 56.8065 51.2164 56.3881 51.2164C56.1979 51.2164 56.1164 51.3025 56.0974 51.4964C55.9996 52.4013 56.0295 52.4417 56.9234 52.4417C56.9505 52.4363 56.975 52.4363 57.0022 52.4363Z" fill="white"/>
<path d="M61.6678 53.4138C61.2222 53.4138 60.7793 53.4192 60.3337 53.4111C59.9316 53.403 59.7577 53.2388 59.7523 52.8402C59.7414 52.1535 59.7414 51.4668 59.7523 50.7774C59.7577 50.3896 59.9425 50.193 60.331 50.1876C61.2195 50.1741 62.1107 50.1741 62.9991 50.1876C63.3523 50.193 63.5588 50.3949 63.5615 50.7558C63.567 51.456 63.567 52.1562 63.5615 52.8564C63.5588 53.2145 63.3714 53.4084 63.0018 53.4111C62.559 53.4165 62.1134 53.4138 61.6678 53.4138ZM61.6216 52.4362C61.6216 52.4335 61.6216 52.4335 61.6216 52.4362C61.8444 52.4335 62.0645 52.4362 62.2873 52.4336C62.4258 52.4336 62.5617 52.4147 62.5671 52.237C62.5753 51.965 62.5753 51.6957 62.5671 51.4237C62.5644 51.254 62.4394 51.2109 62.2981 51.2109C61.8688 51.2082 61.4396 51.2109 61.0076 51.2109C60.8364 51.2109 60.7603 51.2944 60.7386 51.4695C60.6245 52.3716 60.6734 52.4336 61.5836 52.4336C61.5971 52.4362 61.608 52.4362 61.6216 52.4362Z" fill="white"/>
<path d="M36.2276 41.1768C35.5212 41.1768 34.8148 41.1768 34.1111 41.1768C33.9535 41.1768 33.7986 41.1768 33.6492 41.1122C33.4481 41.026 33.334 40.8725 33.334 40.6625C33.334 40.4497 33.4508 40.2962 33.6519 40.2154C33.8258 40.1427 34.0105 40.1508 34.1926 40.1508C35.5402 40.1508 36.8851 40.1508 38.2328 40.1508C38.2708 40.1508 38.3116 40.1508 38.3496 40.1508C38.8631 40.1616 39.1321 40.342 39.1294 40.6706C39.1267 41.0018 38.8631 41.1768 38.3469 41.1768C37.6377 41.1795 36.934 41.1768 36.2276 41.1768Z" fill="white"/>
<path d="M36.2445 43.2154C35.4865 43.2154 34.7285 43.2181 33.9731 43.2127C33.5629 43.21 33.3482 43.0404 33.3401 42.7361C33.3319 42.4156 33.5547 42.2352 33.9867 42.2325C35.4892 42.2298 36.9917 42.2298 38.4915 42.2325C38.8909 42.2325 39.1219 42.4156 39.13 42.7091C39.1382 43.0188 38.8991 43.2074 38.4779 43.21C37.7335 43.2181 36.989 43.2154 36.2445 43.2154Z" fill="white"/>
<path d="M36.1943 39.0924C35.4472 39.0924 34.7027 39.0951 33.9555 39.0924C33.5425 39.0897 33.3306 38.9201 33.336 38.6104C33.3415 38.3142 33.5751 38.1203 33.9664 38.1176C35.4716 38.1122 36.9768 38.1122 38.4821 38.1176C38.8923 38.1203 39.1423 38.333 39.1287 38.64C39.1151 38.9308 38.8869 39.0924 38.4712 39.0951C37.7104 39.0951 36.9524 39.0924 36.1943 39.0924Z" fill="white"/>
<path d="M41.4094 41.1875C41.2029 41.1767 40.9909 41.1848 40.7872 41.1498C40.5291 41.1067 40.3633 40.9371 40.3633 40.6705C40.3606 40.4012 40.5182 40.2315 40.7817 40.1884C41.1947 40.1211 41.6131 40.1265 42.0261 40.1803C42.3033 40.218 42.4853 40.3958 42.4744 40.6785C42.4663 40.964 42.2679 41.1202 41.9962 41.1552C41.8033 41.1794 41.6077 41.1606 41.4121 41.1606C41.4094 41.1713 41.4094 41.1794 41.4094 41.1875Z" fill="white"/>
<path d="M41.3879 43.2075C41.1922 43.2075 40.9966 43.2236 40.8037 43.2021C40.5374 43.1725 40.3717 43.0109 40.3636 42.7443C40.3554 42.4561 40.5266 42.2676 40.8064 42.2488C41.2086 42.2218 41.6134 42.2245 42.0155 42.2461C42.2954 42.2622 42.4801 42.44 42.4801 42.7254C42.4801 43.0082 42.2954 43.1752 42.0128 43.2048C41.8063 43.2236 41.5971 43.2075 41.3879 43.2075Z" fill="white"/>
<path d="M41.396 39.0899C41.214 39.0899 41.032 39.098 40.8499 39.0872C40.5619 39.0737 40.3826 38.9175 40.3609 38.6348C40.3418 38.3628 40.5076 38.1797 40.763 38.142C41.2004 38.08 41.646 38.0773 42.0834 38.142C42.3416 38.1797 42.4991 38.3735 42.4774 38.6402C42.4557 38.8987 42.2954 39.0683 42.021 39.0845C41.8145 39.098 41.6052 39.0872 41.396 39.0899C41.396 39.0872 41.396 39.0872 41.396 39.0899Z" fill="white"/>
<path d="M39.1013 61.3205C39.3784 61.3313 39.7262 61.2801 40.0658 61.1751C40.5141 61.0378 40.7804 61.1266 40.8836 61.4336C40.9869 61.7379 40.8076 61.983 40.3756 62.1257C37.8922 62.9525 35.1046 61.3313 34.6155 58.7783C34.1237 56.2092 35.7811 53.8636 38.4383 53.4839C40.976 53.123 43.1904 54.9704 43.4675 57.3672C43.6333 58.8053 43.1524 60.0144 42.1688 61.0512C42.1253 61.097 42.0737 61.1401 42.0221 61.1805C41.7857 61.369 41.5439 61.3959 41.3238 61.167C41.1064 60.9408 41.1309 60.6957 41.3347 60.4722C41.5276 60.2622 41.7341 60.0629 41.8944 59.8232C42.6959 58.6437 42.6986 57.1141 41.8971 55.9426C41.101 54.7792 39.7099 54.2218 38.2998 54.5019C36.9304 54.7738 35.8517 55.8699 35.5909 57.2568C35.1942 59.3923 36.8217 61.3205 39.1013 61.3205Z" fill="white"/>
<path d="M37.523 58.9667C37.5366 58.6705 37.6398 58.455 37.936 58.4119C38.2484 58.3662 38.4277 58.5251 38.5038 58.8186C38.5256 58.9048 38.5419 58.999 38.5826 59.0771C38.6967 59.2979 38.8815 59.4057 39.1315 59.341C39.3597 59.2845 39.4819 59.1229 39.4847 58.8859C39.4874 58.6301 39.357 58.4712 39.1124 58.4066C39.0255 58.385 38.9304 58.3904 38.8407 58.3769C38.1751 58.2773 37.6779 57.8195 37.5474 57.1866C37.4252 56.5969 37.6833 55.9963 38.2321 55.6489C38.4087 55.5385 38.5419 55.4389 38.5419 55.2046C38.5419 54.9326 38.7049 54.7683 38.9793 54.7495C39.2755 54.7306 39.4711 54.9003 39.4983 55.1723C39.5254 55.4254 39.6423 55.5547 39.846 55.6812C40.2346 55.9209 40.4383 56.2899 40.4954 56.7396C40.5334 57.0493 40.4356 57.2917 40.1069 57.359C39.7754 57.4263 39.5825 57.2378 39.5173 56.9335C39.4602 56.6696 39.3706 56.4595 39.0635 56.4326C38.8108 56.4111 38.6261 56.5134 38.5473 56.7531C38.4658 57.0008 38.5718 57.192 38.7864 57.3078C38.8951 57.3671 39.0336 57.3859 39.1613 57.4021C39.7971 57.4856 40.3025 57.9057 40.4601 58.4847C40.6231 59.0933 40.403 59.71 39.8515 60.0843C39.6558 60.2163 39.5254 60.3428 39.4983 60.596C39.4684 60.868 39.2809 61.043 38.9847 61.0215C38.713 61.0026 38.5446 60.8356 38.5446 60.5637C38.5446 60.3294 38.4223 60.2243 38.2376 60.1193C37.7811 59.8662 37.5746 59.4488 37.523 58.9667Z" fill="white"/>
</svg>
